<svg version="1.1" style="font-family:&quot;Lucida Grande&quot;, &quot;Lucida Sans Unicode&quot;, Arial, Helvetica, sans-serif;font-size:12px;" xmlns="http://www.w3.org/2000/svg" width="1297" height="350"><style type="text/css"><![CDATA[
* { box-sizing: border-box; }

]]></style><desc>Created with Highcharts 4.2.6</desc><defs><clipPath id="highcharts-85"><rect x="0" y="0" width="1157" height="145"></rect></clipPath></defs><rect x="0" y="0" width="1297" height="350" fill="#FFFFFF" class=" highcharts-background"></rect><g class="highcharts-grid"></g><g class="highcharts-grid"><path fill="none" d="M 130 155.5 L 1287 155.5" stroke="#D8D8D8" stroke-width="1" opacity="1"></path><path fill="none" d="M 130 83.5 L 1287 83.5" stroke="#D8D8D8" stroke-width="1" opacity="1"></path><path fill="none" d="M 130 9.5 L 1287 9.5" stroke="#D8D8D8" stroke-width="1" opacity="1"></path></g><g class="highcharts-axis"><path fill="none" d="M 150.5 155 L 150.5 165" stroke="#C0D0E0" stroke-width="1" opacity="1"></path><path fill="none" d="M 172.5 155 L 172.5 165" stroke="#C0D0E0" stroke-width="1" opacity="1"></path><path fill="none" d="M 193.5 155 L 193.5 165" stroke="#C0D0E0" stroke-width="1" opacity="1"></path><path fill="none" d="M 215.5 155 L 215.5 165" stroke="#C0D0E0" stroke-width="1" opacity="1"></path><path fill="none" d="M 236.5 155 L 236.5 165" stroke="#C0D0E0" stroke-width="1" opacity="1"></path><path fill="none" d="M 258.5 155 L 258.5 165" stroke="#C0D0E0" stroke-width="1" opacity="1"></path><path fill="none" d="M 279.5 155 L 279.5 165" stroke="#C0D0E0" stroke-width="1" opacity="1"></path><path fill="none" d="M 300.5 155 L 300.5 165" stroke="#C0D0E0" stroke-width="1" opacity="1"></path><path fill="none" d="M 322.5 155 L 322.5 165" stroke="#C0D0E0" stroke-width="1" opacity="1"></path><path fill="none" d="M 343.5 155 L 343.5 165" stroke="#C0D0E0" stroke-width="1" opacity="1"></path><path fill="none" d="M 365.5 155 L 365.5 165" stroke="#C0D0E0" stroke-width="1" opacity="1"></path><path fill="none" d="M 386.5 155 L 386.5 165" stroke="#C0D0E0" stroke-width="1" opacity="1"></path><path fill="none" d="M 408.5 155 L 408.5 165" stroke="#C0D0E0" stroke-width="1" opacity="1"></path><path fill="none" d="M 429.5 155 L 429.5 165" stroke="#C0D0E0" stroke-width="1" opacity="1"></path><path fill="none" d="M 450.5 155 L 450.5 165" stroke="#C0D0E0" stroke-width="1" opacity="1"></path><path fill="none" d="M 472.5 155 L 472.5 165" stroke="#C0D0E0" stroke-width="1" opacity="1"></path><path fill="none" d="M 493.5 155 L 493.5 165" stroke="#C0D0E0" stroke-width="1" opacity="1"></path><path fill="none" d="M 515.5 155 L 515.5 165" stroke="#C0D0E0" stroke-width="1" opacity="1"></path><path fill="none" d="M 536.5 155 L 536.5 165" stroke="#C0D0E0" stroke-width="1" opacity="1"></path><path fill="none" d="M 558.5 155 L 558.5 165" stroke="#C0D0E0" stroke-width="1" opacity="1"></path><path fill="none" d="M 579.5 155 L 579.5 165" stroke="#C0D0E0" stroke-width="1" opacity="1"></path><path fill="none" d="M 600.5 155 L 600.5 165" stroke="#C0D0E0" stroke-width="1" opacity="1"></path><path fill="none" d="M 622.5 155 L 622.5 165" stroke="#C0D0E0" stroke-width="1" opacity="1"></path><path fill="none" d="M 643.5 155 L 643.5 165" stroke="#C0D0E0" stroke-width="1" opacity="1"></path><path fill="none" d="M 665.5 155 L 665.5 165" stroke="#C0D0E0" stroke-width="1" opacity="1"></path><path fill="none" d="M 686.5 155 L 686.5 165" stroke="#C0D0E0" stroke-width="1" opacity="1"></path><path fill="none" d="M 708.5 155 L 708.5 165" stroke="#C0D0E0" stroke-width="1" opacity="1"></path><path fill="none" d="M 729.5 155 L 729.5 165" stroke="#C0D0E0" stroke-width="1" opacity="1"></path><path fill="none" d="M 750.5 155 L 750.5 165" stroke="#C0D0E0" stroke-width="1" opacity="1"></path><path fill="none" d="M 772.5 155 L 772.5 165" stroke="#C0D0E0" stroke-width="1" opacity="1"></path><path fill="none" d="M 793.5 155 L 793.5 165" stroke="#C0D0E0" stroke-width="1" opacity="1"></path><path fill="none" d="M 815.5 155 L 815.5 165" stroke="#C0D0E0" stroke-width="1" opacity="1"></path><path fill="none" d="M 836.5 155 L 836.5 165" stroke="#C0D0E0" stroke-width="1" opacity="1"></path><path fill="none" d="M 857.5 155 L 857.5 165" stroke="#C0D0E0" stroke-width="1" opacity="1"></path><path fill="none" d="M 879.5 155 L 879.5 165" stroke="#C0D0E0" stroke-width="1" opacity="1"></path><path fill="none" d="M 900.5 155 L 900.5 165" stroke="#C0D0E0" stroke-width="1" opacity="1"></path><path fill="none" d="M 922.5 155 L 922.5 165" stroke="#C0D0E0" stroke-width="1" opacity="1"></path><path fill="none" d="M 943.5 155 L 943.5 165" stroke="#C0D0E0" stroke-width="1" opacity="1"></path><path fill="none" d="M 965.5 155 L 965.5 165" stroke="#C0D0E0" stroke-width="1" opacity="1"></path><path fill="none" d="M 986.5 155 L 986.5 165" stroke="#C0D0E0" stroke-width="1" opacity="1"></path><path fill="none" d="M 1007.5 155 L 1007.5 165" stroke="#C0D0E0" stroke-width="1" opacity="1"></path><path fill="none" d="M 1029.5 155 L 1029.5 165" stroke="#C0D0E0" stroke-width="1" opacity="1"></path><path fill="none" d="M 1050.5 155 L 1050.5 165" stroke="#C0D0E0" stroke-width="1" opacity="1"></path><path fill="none" d="M 1072.5 155 L 1072.5 165" stroke="#C0D0E0" stroke-width="1" opacity="1"></path><path fill="none" d="M 1093.5 155 L 1093.5 165" stroke="#C0D0E0" stroke-width="1" opacity="1"></path><path fill="none" d="M 1115.5 155 L 1115.5 165" stroke="#C0D0E0" stroke-width="1" opacity="1"></path><path fill="none" d="M 1136.5 155 L 1136.5 165" stroke="#C0D0E0" stroke-width="1" opacity="1"></path><path fill="none" d="M 1157.5 155 L 1157.5 165" stroke="#C0D0E0" stroke-width="1" opacity="1"></path><path fill="none" d="M 1179.5 155 L 1179.5 165" stroke="#C0D0E0" stroke-width="1" opacity="1"></path><path fill="none" d="M 1200.5 155 L 1200.5 165" stroke="#C0D0E0" stroke-width="1" opacity="1"></path><path fill="none" d="M 1222.5 155 L 1222.5 165" stroke="#C0D0E0" stroke-width="1" opacity="1"></path><path fill="none" d="M 1243.5 155 L 1243.5 165" stroke="#C0D0E0" stroke-width="1" opacity="1"></path><path fill="none" d="M 1265.5 155 L 1265.5 165" stroke="#C0D0E0" stroke-width="1" opacity="1"></path><path fill="none" d="M 1286.5 155 L 1286.5 165" stroke="#C0D0E0" stroke-width="1" opacity="1"></path><path fill="none" d="M 129.5 155 L 129.5 165" stroke="#C0D0E0" stroke-width="1" opacity="1"></path><path fill="none" d="M 130 155.5 L 1287 155.5" stroke="#C0D0E0" stroke-width="1"></path></g><g class="highcharts-axis"><text x="80.515625" text-anchor="middle" transform="translate(0,0) rotate(270 80.515625 82.5)" class=" highcharts-yaxis-title" style="color:#707070;fill:#707070;" y="82.5"><tspan>Number of Samples</tspan></text></g><g class="highcharts-series-group"><g class="highcharts-series highcharts-series-0 highcharts-tracker" transform="translate(130,10) scale(1 1)" style="cursor:pointer;" clip-path="url(#highcharts-85)"><rect x="5.5" y="49.5" width="11" height="12" stroke="#FFFFFF" stroke-width="1" fill="#ccc" rx="0" ry="0"></rect><rect x="26.5" y="67.5" width="11" height="10" stroke="#FFFFFF" stroke-width="1" fill="#ccc" rx="0" ry="0"></rect><rect x="47.5" y="108.5" width="11" height="3" stroke="#FFFFFF" stroke-width="1" fill="#ccc" rx="0" ry="0"></rect><rect x="69.5" y="82.5" width="11" height="7" stroke="#FFFFFF" stroke-width="1" fill="#ccc" rx="0" ry="0"></rect><rect x="90.5" y="110.5" width="11" height="4" stroke="#FFFFFF" stroke-width="1" fill="#ccc" rx="0" ry="0"></rect><rect x="112.5" y="49.5" width="11" height="11" stroke="#FFFFFF" stroke-width="1" fill="#ccc" rx="0" ry="0"></rect><rect x="133.5" y="142.5" width="11" height="0" stroke="#FFFFFF" stroke-width="1" fill="#ccc" rx="0" ry="0"></rect><rect x="155.5" y="123.5" width="11" height="3" stroke="#FFFFFF" stroke-width="1" fill="#ccc" rx="0" ry="0"></rect><rect x="176.5" y="119.5" width="11" height="5" stroke="#FFFFFF" stroke-width="1" fill="#ccc" rx="0" ry="0"></rect><rect x="197.5" y="109.5" width="11" height="8" stroke="#FFFFFF" stroke-width="1" fill="#ccc" rx="0" ry="0"></rect><rect x="219.5" y="114.5" width="11" height="6" stroke="#FFFFFF" stroke-width="1" fill="#ccc" rx="0" ry="0"></rect><rect x="240.5" y="110.5" width="11" height="5" stroke="#FFFFFF" stroke-width="1" fill="#ccc" rx="0" ry="0"></rect><rect x="262.5" y="108.5" width="11" height="7" stroke="#FFFFFF" stroke-width="1" fill="#ccc" rx="0" ry="0"></rect><rect x="283.5" y="115.5" width="11" height="5" stroke="#FFFFFF" stroke-width="1" fill="#ccc" rx="0" ry="0"></rect><rect x="305.5" y="116.5" width="11" height="5" stroke="#FFFFFF" stroke-width="1" fill="#ccc" rx="0" ry="0"></rect><rect x="326.5" y="116.5" width="11" height="4" stroke="#FFFFFF" stroke-width="1" fill="#ccc" rx="0" ry="0"></rect><rect x="347.5" y="109.5" width="11" height="7" stroke="#FFFFFF" stroke-width="1" fill="#ccc" rx="0" ry="0"></rect><rect x="369.5" y="115.5" width="11" height="5" stroke="#FFFFFF" stroke-width="1" fill="#ccc" rx="0" ry="0"></rect><rect x="390.5" y="122.5" width="11" height="5" stroke="#FFFFFF" stroke-width="1" fill="#ccc" rx="0" ry="0"></rect><rect x="412.5" y="125.5" width="11" height="3" stroke="#FFFFFF" stroke-width="1" fill="#ccc" rx="0" ry="0"></rect><rect x="433.5" y="78.5" width="11" height="10" stroke="#FFFFFF" stroke-width="1" fill="#ccc" rx="0" ry="0"></rect><rect x="455.5" y="72.5" width="11" height="3" stroke="#FFFFFF" stroke-width="1" fill="#ccc" rx="0" ry="0"></rect><rect x="476.5" y="120.5" width="11" height="4" stroke="#FFFFFF" stroke-width="1" fill="#ccc" rx="0" ry="0"></rect><rect x="497.5" y="144.5" width="11" height="0" stroke="#FFFFFF" stroke-width="1" fill="#ccc" rx="0" ry="0"></rect><rect x="519.5" y="144.5" width="11" height="0" stroke="#FFFFFF" stroke-width="1" fill="#ccc" rx="0" ry="0"></rect><rect x="540.5" y="91.5" width="11" height="8" stroke="#FFFFFF" stroke-width="1" fill="#ccc" rx="0" ry="0"></rect><rect x="562.5" y="86.5" width="11" height="6" stroke="#FFFFFF" stroke-width="1" fill="#ccc" rx="0" ry="0"></rect><rect x="583.5" y="91.5" width="11" height="6" stroke="#FFFFFF" stroke-width="1" fill="#ccc" rx="0" ry="0"></rect><rect x="604.5" y="65.5" width="11" height="8" stroke="#FFFFFF" stroke-width="1" fill="#ccc" rx="0" ry="0"></rect><rect x="626.5" y="70.5" width="11" height="8" stroke="#FFFFFF" stroke-width="1" fill="#ccc" rx="0" ry="0"></rect><rect x="647.5" y="144.5" width="11" height="0" stroke="#FFFFFF" stroke-width="1" fill="#ccc" rx="0" ry="0"></rect><rect x="669.5" y="83.5" width="11" height="8" stroke="#FFFFFF" stroke-width="1" fill="#ccc" rx="0" ry="0"></rect><rect x="690.5" y="82.5" width="11" height="7" stroke="#FFFFFF" stroke-width="1" fill="#ccc" rx="0" ry="0"></rect><rect x="712.5" y="133.5" width="11" height="1" stroke="#FFFFFF" stroke-width="1" fill="#ccc" rx="0" ry="0"></rect><rect x="733.5" y="144.5" width="11" height="0" stroke="#FFFFFF" stroke-width="1" fill="#ccc" rx="0" ry="0"></rect><rect x="754.5" y="112.5" width="11" height="3" stroke="#FFFFFF" stroke-width="1" fill="#ccc" rx="0" ry="0"></rect><rect x="776.5" y="61.5" width="11" height="9" stroke="#FFFFFF" stroke-width="1" fill="#ccc" rx="0" ry="0"></rect><rect x="797.5" y="122.5" width="11" height="2" stroke="#FFFFFF" stroke-width="1" fill="#ccc" rx="0" ry="0"></rect><rect x="819.5" y="29.5" width="11" height="14" stroke="#FFFFFF" stroke-width="1" fill="#ccc" rx="0" ry="0"></rect><rect x="840.5" y="55.5" width="11" height="13" stroke="#FFFFFF" stroke-width="1" fill="#ccc" rx="0" ry="0"></rect><rect x="862.5" y="119.5" width="11" height="2" stroke="#FFFFFF" stroke-width="1" fill="#ccc" rx="0" ry="0"></rect><rect x="883.5" y="97.5" width="11" height="4" stroke="#FFFFFF" stroke-width="1" fill="#ccc" rx="0" ry="0"></rect><rect x="904.5" y="104.5" width="11" height="7" stroke="#FFFFFF" stroke-width="1" fill="#ccc" rx="0" ry="0"></rect><rect x="926.5" y="109.5" width="11" height="4" stroke="#FFFFFF" stroke-width="1" fill="#ccc" rx="0" ry="0"></rect><rect x="947.5" y="57.5" width="11" height="13" stroke="#FFFFFF" stroke-width="1" fill="#ccc" rx="0" ry="0"></rect><rect x="969.5" y="43.5" width="11" height="14" stroke="#FFFFFF" stroke-width="1" fill="#ccc" rx="0" ry="0"></rect><rect x="990.5" y="118.5" width="11" height="2" stroke="#FFFFFF" stroke-width="1" fill="#ccc" rx="0" ry="0"></rect><rect x="1012.5" y="110.5" width="11" height="2" stroke="#FFFFFF" stroke-width="1" fill="#ccc" rx="0" ry="0"></rect><rect x="1033.5" y="93.5" width="11" height="5" stroke="#FFFFFF" stroke-width="1" fill="#ccc" rx="0" ry="0"></rect><rect x="1054.5" y="93.5" width="11" height="5" stroke="#FFFFFF" stroke-width="1" fill="#ccc" rx="0" ry="0"></rect><rect x="1076.5" y="50.5" width="11" height="12" stroke="#FFFFFF" stroke-width="1" fill="#ccc" rx="0" ry="0"></rect><rect x="1097.5" y="124.5" width="11" height="2" stroke="#FFFFFF" stroke-width="1" fill="#ccc" rx="0" ry="0"></rect><rect x="1119.5" y="122.5" width="11" height="3" stroke="#FFFFFF" stroke-width="1" fill="#ccc" rx="0" ry="0"></rect><rect x="1140.5" y="36.5" width="11" height="12" stroke="#FFFFFF" stroke-width="1" fill="#ccc" rx="0" ry="0"></rect></g><g class="highcharts-markers highcharts-series-0" transform="translate(130,10) scale(1 1)" clip-path="none"></g><g class="highcharts-series highcharts-series-1 highcharts-tracker" transform="translate(130,10) scale(1 1)" style="cursor:pointer;" clip-path="url(#highcharts-85)"><rect x="5.5" y="61.5" width="11" height="84" stroke="#FFFFFF" stroke-width="1" fill="#FF6600" rx="0" ry="0"></rect><rect x="26.5" y="77.5" width="11" height="68" stroke="#FFFFFF" stroke-width="1" fill="#FFAA00" rx="0" ry="0"></rect><rect x="47.5" y="111.5" width="11" height="34" stroke="#FFFFFF" stroke-width="1" fill="#33DD33" rx="0" ry="0"></rect><rect x="69.5" y="89.5" width="11" height="56" stroke="#FFFFFF" stroke-width="1" fill="#FF5555" rx="0" ry="0"></rect><rect x="90.5" y="114.5" width="11" height="31" stroke="#FFFFFF" stroke-width="1" fill="#FFAA99" rx="0" ry="0"></rect><rect x="112.5" y="60.5" width="11" height="85" stroke="#FFFFFF" stroke-width="1" fill="#FF0000" rx="0" ry="0"></rect><rect x="133.5" y="142.5" width="11" height="3" stroke="#FFFFFF" stroke-width="1" fill="#AA0000" rx="0" ry="0"></rect><rect x="155.5" y="126.5" width="11" height="19" stroke="#FFFFFF" stroke-width="1" fill="#EEEE00" rx="0" ry="0"></rect><rect x="176.5" y="124.5" width="11" height="21" stroke="#FFFFFF" stroke-width="1" fill="#EEEE00" rx="0" ry="0"></rect><rect x="197.5" y="117.5" width="11" height="28" stroke="#FFFFFF" stroke-width="1" fill="#EEEE00" rx="0" ry="0"></rect><rect x="219.5" y="120.5" width="11" height="25" stroke="#FFFFFF" stroke-width="1" fill="#EEEE00" rx="0" ry="0"></rect><rect x="240.5" y="115.5" width="11" height="30" stroke="#FFFFFF" stroke-width="1" fill="#EEEE00" rx="0" ry="0"></rect><rect x="262.5" y="115.5" width="11" height="30" stroke="#FFFFFF" stroke-width="1" fill="#EEEE00" rx="0" ry="0"></rect><rect x="283.5" y="120.5" width="11" height="25" stroke="#FFFFFF" stroke-width="1" fill="#EEEE00" rx="0" ry="0"></rect><rect x="305.5" y="121.5" width="11" height="24" stroke="#FFFFFF" stroke-width="1" fill="#EEEE00" rx="0" ry="0"></rect><rect x="326.5" y="120.5" width="11" height="25" stroke="#FFFFFF" stroke-width="1" fill="#EEEE00" rx="0" ry="0"></rect><rect x="347.5" y="116.5" width="11" height="29" stroke="#FFFFFF" stroke-width="1" fill="#EEEE00" rx="0" ry="0"></rect><rect x="369.5" y="120.5" width="11" height="25" stroke="#FFFFFF" stroke-width="1" fill="#EEEE00" rx="0" ry="0"></rect><rect x="390.5" y="127.5" width="11" height="18" stroke="#FFFFFF" stroke-width="1" fill="#EEEE00" rx="0" ry="0"></rect><rect x="412.5" y="128.5" width="11" height="17" stroke="#FFFFFF" stroke-width="1" fill="#EEEE00" rx="0" ry="0"></rect><rect x="433.5" y="88.5" width="11" height="57" stroke="#FFFFFF" stroke-width="1" fill="#33CCCC" rx="0" ry="0"></rect><rect x="455.5" y="75.5" width="11" height="70" stroke="#FFFFFF" stroke-width="1" fill="#AAEEFF" rx="0" ry="0"></rect><rect x="476.5" y="124.5" width="11" height="21" stroke="#FFFFFF" stroke-width="1" fill="#CC66FF" rx="0" ry="0"></rect><rect x="497.5" y="144.5" width="11" height="1" stroke="#FFFFFF" stroke-width="1" fill="#FFCCCC" rx="0" ry="0"></rect><rect x="519.5" y="144.5" width="11" height="1" stroke="#FFFFFF" stroke-width="1" fill="#CCAADD" rx="0" ry="0"></rect><rect x="540.5" y="99.5" width="11" height="46" stroke="#FFFFFF" stroke-width="1" fill="#EEBB77" rx="0" ry="0"></rect><rect x="562.5" y="92.5" width="11" height="53" stroke="#FFFFFF" stroke-width="1" fill="#CC9955" rx="0" ry="0"></rect><rect x="583.5" y="97.5" width="11" height="48" stroke="#FFFFFF" stroke-width="1" fill="#8B7355" rx="0" ry="0"></rect><rect x="604.5" y="73.5" width="11" height="72" stroke="#FFFFFF" stroke-width="1" fill="#552200" rx="0" ry="0"></rect><rect x="626.5" y="78.5" width="11" height="67" stroke="#FFFFFF" stroke-width="1" fill="#BB9988" rx="0" ry="0"></rect><rect x="647.5" y="144.5" width="11" height="1" stroke="#FFFFFF" stroke-width="1" fill="#FFCCCC" rx="0" ry="0"></rect><rect x="669.5" y="91.5" width="11" height="54" stroke="#FFFFFF" stroke-width="1" fill="#9900FF" rx="0" ry="0"></rect><rect x="690.5" y="89.5" width="11" height="56" stroke="#FFFFFF" stroke-width="1" fill="#660099" rx="0" ry="0"></rect><rect x="712.5" y="134.5" width="11" height="11" stroke="#FFFFFF" stroke-width="1" fill="#22FFDD" rx="0" ry="0"></rect><rect x="733.5" y="144.5" width="11" height="1" stroke="#FFFFFF" stroke-width="1" fill="#33FFC2" rx="0" ry="0"></rect><rect x="754.5" y="115.5" width="11" height="30" stroke="#FFFFFF" stroke-width="1" fill="#AABB66" rx="0" ry="0"></rect><rect x="776.5" y="70.5" width="11" height="75" stroke="#FFFFFF" stroke-width="1" fill="#99FF00" rx="0" ry="0"></rect><rect x="797.5" y="124.5" width="11" height="21" stroke="#FFFFFF" stroke-width="1" fill="#99BB88" rx="0" ry="0"></rect><rect x="819.5" y="43.5" width="11" height="102" stroke="#FFFFFF" stroke-width="1" fill="#AAAAFF" rx="0" ry="0"></rect><rect x="840.5" y="68.5" width="11" height="77" stroke="#FFFFFF" stroke-width="1" fill="#FFD700" rx="0" ry="0"></rect><rect x="862.5" y="121.5" width="11" height="24" stroke="#FFFFFF" stroke-width="1" fill="#FFAAFF" rx="0" ry="0"></rect><rect x="883.5" y="101.5" width="11" height="44" stroke="#FFFFFF" stroke-width="1" fill="#995522" rx="0" ry="0"></rect><rect x="904.5" y="111.5" width="11" height="34" stroke="#FFFFFF" stroke-width="1" fill="#AAFF99" rx="0" ry="0"></rect><rect x="926.5" y="113.5" width="11" height="32" stroke="#FFFFFF" stroke-width="1" fill="#DDDDDD" rx="0" ry="0"></rect><rect x="947.5" y="70.5" width="11" height="75" stroke="#FFFFFF" stroke-width="1" fill="#0000FF" rx="0" ry="0"></rect><rect x="969.5" y="57.5" width="11" height="88" stroke="#FFFFFF" stroke-width="1" fill="#7777FF" rx="0" ry="0"></rect><rect x="990.5" y="120.5" width="11" height="25" stroke="#FFFFFF" stroke-width="1" fill="#555522" rx="0" ry="0"></rect><rect x="1012.5" y="112.5" width="11" height="33" stroke="#FFFFFF" stroke-width="1" fill="#778855" rx="0" ry="0"></rect><rect x="1033.5" y="98.5" width="11" height="47" stroke="#FFFFFF" stroke-width="1" fill="#FFDD99" rx="0" ry="0"></rect><rect x="1054.5" y="98.5" width="11" height="47" stroke="#FFFFFF" stroke-width="1" fill="#AAAAAA" rx="0" ry="0"></rect><rect x="1076.5" y="62.5" width="11" height="83" stroke="#FFFFFF" stroke-width="1" fill="#006600" rx="0" ry="0"></rect><rect x="1097.5" y="126.5" width="11" height="19" stroke="#FFFFFF" stroke-width="1" fill="#FF66FF" rx="0" ry="0"></rect><rect x="1119.5" y="125.5" width="11" height="20" stroke="#FFFFFF" stroke-width="1" fill="#FF5599" rx="0" ry="0"></rect><rect x="1140.5" y="48.5" width="11" height="97" stroke="#FFFFFF" stroke-width="1" fill="#FF00BB" rx="0" ry="0"></rect></g><g class="highcharts-markers highcharts-series-1" transform="translate(130,10) scale(1 1)" clip-path="none"></g></g><path fill="none" d="M 130 145.5 L 1287 145.5" stroke="#FF0000" stroke-width="1" stroke-dasharray="4,3"></path><g class="highcharts-axis-labels highcharts-xaxis-labels"><text x="143.54139008770915" style="color:#606060;cursor:default;font-size:12px;font-family:Verdana, sans-serif;white-space:nowrap;text-overflow:none;fill:#606060;width:350px;" text-anchor="end" transform="translate(0,0) rotate(-45 143.54139008770915 171)" y="171" opacity="1"><tspan>Adipose - Subcutaneous</tspan></text><text x="164.96731601363507" style="color:#606060;cursor:default;font-size:12px;font-family:Verdana, sans-serif;white-space:nowrap;text-overflow:none;fill:#606060;width:350px;" text-anchor="end" transform="translate(0,0) rotate(-45 164.96731601363507 171)" y="171" opacity="1"><tspan>Adipose - Visceral (Omentum)</tspan></text><text x="186.393241939561" style="color:#606060;cursor:default;font-size:12px;font-family:Verdana, sans-serif;white-space:nowrap;text-overflow:none;fill:#606060;width:350px;" text-anchor="end" transform="translate(0,0) rotate(-45 186.393241939561 171)" y="171" opacity="1"><tspan>Adrenal Gland</tspan></text><text x="207.81916786548692" style="color:#606060;cursor:default;font-size:12px;font-family:Verdana, sans-serif;white-space:nowrap;text-overflow:none;fill:#606060;width:350px;" text-anchor="end" transform="translate(0,0) rotate(-45 207.81916786548692 171)" y="171" opacity="1"><tspan>Artery - Aorta</tspan></text><text x="229.24509379141284" style="color:#606060;cursor:default;font-size:12px;font-family:Verdana, sans-serif;white-space:nowrap;text-overflow:none;fill:#606060;width:350px;" text-anchor="end" transform="translate(0,0) rotate(-45 229.24509379141284 171)" y="171" opacity="1"><tspan>Artery - Coronary</tspan></text><text x="250.6710197173388" style="color:#606060;cursor:default;font-size:12px;font-family:Verdana, sans-serif;white-space:nowrap;text-overflow:none;fill:#606060;width:350px;" text-anchor="end" transform="translate(0,0) rotate(-45 250.6710197173388 171)" y="171" opacity="1"><tspan>Artery - Tibial</tspan></text><text x="272.09694564326475" style="color:#606060;cursor:default;font-size:12px;font-family:Verdana, sans-serif;white-space:nowrap;text-overflow:none;fill:#606060;width:350px;" text-anchor="end" transform="translate(0,0) rotate(-45 272.09694564326475 171)" y="171" opacity="1"><tspan>Bladder</tspan></text><text x="293.5228715691906" style="color:#606060;cursor:default;font-size:12px;font-family:Verdana, sans-serif;white-space:nowrap;text-overflow:none;fill:#606060;width:350px;" text-anchor="end" transform="translate(0,0) rotate(-45 293.5228715691906 171)" y="171" opacity="1"><tspan>Brain - Amygdala</tspan></text><text x="314.9487974951166" style="color:#606060;cursor:default;font-size:12px;font-family:Verdana, sans-serif;white-space:nowrap;text-overflow:none;fill:#606060;width:350px;" text-anchor="end" transform="translate(0,0) rotate(-45 314.9487974951166 171)" y="171" opacity="1"><tspan>Brain - Anterior cingulate cortex (BA24)</tspan></text><text x="336.37472342104246" style="color:#606060;cursor:default;font-size:12px;font-family:Verdana, sans-serif;white-space:nowrap;text-overflow:none;fill:#606060;width:350px;" text-anchor="end" transform="translate(0,0) rotate(-45 336.37472342104246 171)" y="171" opacity="1"><tspan>Brain - Caudate (basal ganglia)</tspan></text><text x="357.80064934696844" style="color:#606060;cursor:default;font-size:12px;font-family:Verdana, sans-serif;white-space:nowrap;text-overflow:none;fill:#606060;width:350px;" text-anchor="end" transform="translate(0,0) rotate(-45 357.80064934696844 171)" y="171" opacity="1"><tspan>Brain - Cerebellar Hemisphere</tspan></text><text x="379.22657527289437" style="color:#606060;cursor:default;font-size:12px;font-family:Verdana, sans-serif;white-space:nowrap;text-overflow:none;fill:#606060;width:350px;" text-anchor="end" transform="translate(0,0) rotate(-45 379.22657527289437 171)" y="171" opacity="1"><tspan>Brain - Cerebellum</tspan></text><text x="400.6525011988203" style="color:#606060;cursor:default;font-size:12px;font-family:Verdana, sans-serif;white-space:nowrap;text-overflow:none;fill:#606060;width:350px;" text-anchor="end" transform="translate(0,0) rotate(-45 400.6525011988203 171)" y="171" opacity="1"><tspan>Brain - Cortex</tspan></text><text x="422.0784271247462" style="color:#606060;cursor:default;font-size:12px;font-family:Verdana, sans-serif;white-space:nowrap;text-overflow:none;fill:#606060;width:350px;" text-anchor="end" transform="translate(0,0) rotate(-45 422.0784271247462 171)" y="171" opacity="1"><tspan>Brain - Frontal Cortex (BA9)</tspan></text><text x="443.50435305067214" style="color:#606060;cursor:default;font-size:12px;font-family:Verdana, sans-serif;white-space:nowrap;text-overflow:none;fill:#606060;width:350px;" text-anchor="end" transform="translate(0,0) rotate(-45 443.50435305067214 171)" y="171" opacity="1"><tspan>Brain - Hippocampus</tspan></text><text x="464.93027897659806" style="color:#606060;cursor:default;font-size:12px;font-family:Verdana, sans-serif;white-space:nowrap;text-overflow:none;fill:#606060;width:350px;" text-anchor="end" transform="translate(0,0) rotate(-45 464.93027897659806 171)" y="171" opacity="1"><tspan>Brain - Hypothalamus</tspan></text><text x="486.35620490252404" style="color:#606060;cursor:default;font-size:12px;font-family:Verdana, sans-serif;white-space:nowrap;text-overflow:none;fill:#606060;width:350px;" text-anchor="end" transform="translate(0,0) rotate(-45 486.35620490252404 171)" y="171" opacity="1"><tspan>Brain - Nucleus accumbens (basal ganglia)</tspan></text><text x="507.78213082844997" style="color:#606060;cursor:default;font-size:12px;font-family:Verdana, sans-serif;white-space:nowrap;text-overflow:none;fill:#606060;width:350px;" text-anchor="end" transform="translate(0,0) rotate(-45 507.78213082844997 171)" y="171" opacity="1"><tspan>Brain - Putamen (basal ganglia)</tspan></text><text x="529.2080567543759" style="color:#606060;cursor:default;font-size:12px;font-family:Verdana, sans-serif;white-space:nowrap;text-overflow:none;fill:#606060;width:350px;" text-anchor="end" transform="translate(0,0) rotate(-45 529.2080567543759 171)" y="171" opacity="1"><tspan>Brain - Spinal cord (cervical c-1)</tspan></text><text x="550.6339826803019" style="color:#606060;cursor:default;font-size:12px;font-family:Verdana, sans-serif;white-space:nowrap;text-overflow:none;fill:#606060;width:350px;" text-anchor="end" transform="translate(0,0) rotate(-45 550.6339826803019 171)" y="171" opacity="1"><tspan>Brain - Substantia nigra</tspan></text><text x="572.0599086062279" style="color:#606060;cursor:default;font-size:12px;font-family:Verdana, sans-serif;white-space:nowrap;text-overflow:none;fill:#606060;width:350px;" text-anchor="end" transform="translate(0,0) rotate(-45 572.0599086062279 171)" y="171" opacity="1"><tspan>Breast - Mammary Tissue</tspan></text><text x="593.4858345321537" style="color:#606060;cursor:default;font-size:12px;font-family:Verdana, sans-serif;white-space:nowrap;text-overflow:none;fill:#606060;width:350px;" text-anchor="end" transform="translate(0,0) rotate(-45 593.4858345321537 171)" y="171" opacity="1"><tspan>Cells - Cultured fibroblasts</tspan></text><text x="614.9117604580796" style="color:#606060;cursor:default;font-size:12px;font-family:Verdana, sans-serif;white-space:nowrap;text-overflow:none;fill:#606060;width:350px;" text-anchor="end" transform="translate(0,0) rotate(-45 614.9117604580796 171)" y="171" opacity="1"><tspan>Cells - EBV-transformed lymphocytes</tspan></text><text x="636.3376863840056" style="color:#606060;cursor:default;font-size:12px;font-family:Verdana, sans-serif;white-space:nowrap;text-overflow:none;fill:#606060;width:350px;" text-anchor="end" transform="translate(0,0) rotate(-45 636.3376863840056 171)" y="171" opacity="1"><tspan>Cervix - Ectocervix</tspan></text><text x="657.7636123099314" style="color:#606060;cursor:default;font-size:12px;font-family:Verdana, sans-serif;white-space:nowrap;text-overflow:none;fill:#606060;width:350px;" text-anchor="end" transform="translate(0,0) rotate(-45 657.7636123099314 171)" y="171" opacity="1"><tspan>Cervix - Endocervix</tspan></text><text x="679.1895382358574" style="color:#606060;cursor:default;font-size:12px;font-family:Verdana, sans-serif;white-space:nowrap;text-overflow:none;fill:#606060;width:350px;" text-anchor="end" transform="translate(0,0) rotate(-45 679.1895382358574 171)" y="171" opacity="1"><tspan>Colon - Sigmoid</tspan></text><text x="700.6154641617833" style="color:#606060;cursor:default;font-size:12px;font-family:Verdana, sans-serif;white-space:nowrap;text-overflow:none;fill:#606060;width:350px;" text-anchor="end" transform="translate(0,0) rotate(-45 700.6154641617833 171)" y="171" opacity="1"><tspan>Colon - Transverse</tspan></text><text x="722.0413900877093" style="color:#606060;cursor:default;font-size:12px;font-family:Verdana, sans-serif;white-space:nowrap;text-overflow:none;fill:#606060;width:350px;" text-anchor="end" transform="translate(0,0) rotate(-45 722.0413900877093 171)" y="171" opacity="1"><tspan>Esophagus - Gastroesophageal Junction</tspan></text><text x="743.4673160136351" style="color:#606060;cursor:default;font-size:12px;font-family:Verdana, sans-serif;white-space:nowrap;text-overflow:none;fill:#606060;width:350px;" text-anchor="end" transform="translate(0,0) rotate(-45 743.4673160136351 171)" y="171" opacity="1"><tspan>Esophagus - Mucosa</tspan></text><text x="764.8932419395611" style="color:#606060;cursor:default;font-size:12px;font-family:Verdana, sans-serif;white-space:nowrap;text-overflow:none;fill:#606060;width:350px;" text-anchor="end" transform="translate(0,0) rotate(-45 764.8932419395611 171)" y="171" opacity="1"><tspan>Esophagus - Muscularis</tspan></text><text x="786.319167865487" style="color:#606060;cursor:default;font-size:12px;font-family:Verdana, sans-serif;white-space:nowrap;text-overflow:none;fill:#606060;width:350px;" text-anchor="end" transform="translate(0,0) rotate(-45 786.319167865487 171)" y="171" opacity="1"><tspan>Fallopian Tube</tspan></text><text x="807.745093791413" style="color:#606060;cursor:default;font-size:12px;font-family:Verdana, sans-serif;white-space:nowrap;text-overflow:none;fill:#606060;width:350px;" text-anchor="end" transform="translate(0,0) rotate(-45 807.745093791413 171)" y="171" opacity="1"><tspan>Heart - Atrial Appendage</tspan></text><text x="829.1710197173388" style="color:#606060;cursor:default;font-size:12px;font-family:Verdana, sans-serif;white-space:nowrap;text-overflow:none;fill:#606060;width:350px;" text-anchor="end" transform="translate(0,0) rotate(-45 829.1710197173388 171)" y="171" opacity="1"><tspan>Heart - Left Ventricle</tspan></text><text x="850.5969456432648" style="color:#606060;cursor:default;font-size:12px;font-family:Verdana, sans-serif;white-space:nowrap;text-overflow:none;fill:#606060;width:350px;" text-anchor="end" transform="translate(0,0) rotate(-45 850.5969456432648 171)" y="171" opacity="1"><tspan>Kidney - Cortex</tspan></text><text x="872.0228715691907" style="color:#606060;cursor:default;font-size:12px;font-family:Verdana, sans-serif;white-space:nowrap;text-overflow:none;fill:#606060;width:350px;" text-anchor="end" transform="translate(0,0) rotate(-45 872.0228715691907 171)" y="171" opacity="1"><tspan>Kidney - Medulla</tspan></text><text x="893.4487974951167" style="color:#606060;cursor:default;font-size:12px;font-family:Verdana, sans-serif;white-space:nowrap;text-overflow:none;fill:#606060;width:350px;" text-anchor="end" transform="translate(0,0) rotate(-45 893.4487974951167 171)" y="171" opacity="1"><tspan>Liver</tspan></text><text x="914.8747234210425" style="color:#606060;cursor:default;font-size:12px;font-family:Verdana, sans-serif;white-space:nowrap;text-overflow:none;fill:#606060;width:350px;" text-anchor="end" transform="translate(0,0) rotate(-45 914.8747234210425 171)" y="171" opacity="1"><tspan>Lung</tspan></text><text x="936.3006493469685" style="color:#606060;cursor:default;font-size:12px;font-family:Verdana, sans-serif;white-space:nowrap;text-overflow:none;fill:#606060;width:350px;" text-anchor="end" transform="translate(0,0) rotate(-45 936.3006493469685 171)" y="171" opacity="1"><tspan>Minor Salivary Gland</tspan></text><text x="957.7265752728944" style="color:#606060;cursor:default;font-size:12px;font-family:Verdana, sans-serif;white-space:nowrap;text-overflow:none;fill:#606060;width:350px;" text-anchor="end" transform="translate(0,0) rotate(-45 957.7265752728944 171)" y="171" opacity="1"><tspan>Muscle - Skeletal</tspan></text><text x="979.1525011988203" style="color:#606060;cursor:default;font-size:12px;font-family:Verdana, sans-serif;white-space:nowrap;text-overflow:none;fill:#606060;width:350px;" text-anchor="end" transform="translate(0,0) rotate(-45 979.1525011988203 171)" y="171" opacity="1"><tspan>Nerve - Tibial</tspan></text><text x="1000.5784271247463" style="color:#606060;cursor:default;font-size:12px;font-family:Verdana, sans-serif;white-space:nowrap;text-overflow:none;fill:#606060;width:350px;" text-anchor="end" transform="translate(0,0) rotate(-45 1000.5784271247463 171)" y="171" opacity="1"><tspan>Ovary</tspan></text><text x="1022.0043530506722" style="color:#606060;cursor:default;font-size:12px;font-family:Verdana, sans-serif;white-space:nowrap;text-overflow:none;fill:#606060;width:350px;" text-anchor="end" transform="translate(0,0) rotate(-45 1022.0043530506722 171)" y="171" opacity="1"><tspan>Pancreas</tspan></text><text x="1043.430278976598" style="color:#606060;cursor:default;font-size:12px;font-family:Verdana, sans-serif;white-space:nowrap;text-overflow:none;fill:#606060;width:350px;" text-anchor="end" transform="translate(0,0) rotate(-45 1043.430278976598 171)" y="171" opacity="1"><tspan>Pituitary</tspan></text><text x="1064.856204902524" style="color:#606060;cursor:default;font-size:12px;font-family:Verdana, sans-serif;white-space:nowrap;text-overflow:none;fill:#606060;width:350px;" text-anchor="end" transform="translate(0,0) rotate(-45 1064.856204902524 171)" y="171" opacity="1"><tspan>Prostate</tspan></text><text x="1086.28213082845" style="color:#606060;cursor:default;font-size:12px;font-family:Verdana, sans-serif;white-space:nowrap;text-overflow:none;fill:#606060;width:350px;" text-anchor="end" transform="translate(0,0) rotate(-45 1086.28213082845 171)" y="171" opacity="1"><tspan>Skin - Not Sun Exposed (Suprapubic)</tspan></text><text x="1107.7080567543758" style="color:#606060;cursor:default;font-size:12px;font-family:Verdana, sans-serif;white-space:nowrap;text-overflow:none;fill:#606060;width:350px;" text-anchor="end" transform="translate(0,0) rotate(-45 1107.7080567543758 171)" y="171" opacity="1"><tspan>Skin - Sun Exposed (Lower leg)</tspan></text><text x="1129.1339826803019" style="color:#606060;cursor:default;font-size:12px;font-family:Verdana, sans-serif;white-space:nowrap;text-overflow:none;fill:#606060;width:350px;" text-anchor="end" transform="translate(0,0) rotate(-45 1129.1339826803019 171)" y="171" opacity="1"><tspan>Small Intestine - Terminal Ileum</tspan></text><text x="1150.5599086062277" style="color:#606060;cursor:default;font-size:12px;font-family:Verdana, sans-serif;white-space:nowrap;text-overflow:none;fill:#606060;width:350px;" text-anchor="end" transform="translate(0,0) rotate(-45 1150.5599086062277 171)" y="171" opacity="1"><tspan>Spleen</tspan></text><text x="1171.9858345321536" style="color:#606060;cursor:default;font-size:12px;font-family:Verdana, sans-serif;white-space:nowrap;text-overflow:none;fill:#606060;width:350px;" text-anchor="end" transform="translate(0,0) rotate(-45 1171.9858345321536 171)" y="171" opacity="1"><tspan>Stomach</tspan></text><text x="1193.4117604580797" style="color:#606060;cursor:default;font-size:12px;font-family:Verdana, sans-serif;white-space:nowrap;text-overflow:none;fill:#606060;width:350px;" text-anchor="end" transform="translate(0,0) rotate(-45 1193.4117604580797 171)" y="171" opacity="1"><tspan>Testis</tspan></text><text x="1214.8376863840056" style="color:#606060;cursor:default;font-size:12px;font-family:Verdana, sans-serif;white-space:nowrap;text-overflow:none;fill:#606060;width:350px;" text-anchor="end" transform="translate(0,0) rotate(-45 1214.8376863840056 171)" y="171" opacity="1"><tspan>Thyroid</tspan></text><text x="1236.2636123099314" style="color:#606060;cursor:default;font-size:12px;font-family:Verdana, sans-serif;white-space:nowrap;text-overflow:none;fill:#606060;width:350px;" text-anchor="end" transform="translate(0,0) rotate(-45 1236.2636123099314 171)" y="171" opacity="1"><tspan>Uterus</tspan></text><text x="1257.6895382358573" style="color:#606060;cursor:default;font-size:12px;font-family:Verdana, sans-serif;white-space:nowrap;text-overflow:none;fill:#606060;width:350px;" text-anchor="end" transform="translate(0,0) rotate(-45 1257.6895382358573 171)" y="171" opacity="1"><tspan>Vagina</tspan></text><text x="1279.1154641617834" style="color:#606060;cursor:default;font-size:12px;font-family:Verdana, sans-serif;white-space:nowrap;text-overflow:none;fill:#606060;width:350px;" text-anchor="end" transform="translate(0,0) rotate(-45 1279.1154641617834 171)" y="171" opacity="1"><tspan>Whole Blood</tspan></text></g><g class="highcharts-axis-labels highcharts-yaxis-labels"><text x="115" style="color:#606060;cursor:default;font-size:11px;fill:#606060;width:110px;text-overflow:clip;" text-anchor="end" transform="translate(0,0)" y="160" opacity="1"><tspan>0</tspan></text><text x="115" style="color:#606060;cursor:default;font-size:11px;fill:#606060;width:110px;text-overflow:clip;" text-anchor="end" transform="translate(0,0)" y="15" opacity="1"><tspan>1000</tspan></text><text x="115" style="color:#606060;cursor:default;font-size:11px;fill:#606060;width:110px;text-overflow:clip;" text-anchor="end" transform="translate(0,0)" y="88" opacity="1"><tspan>500</tspan></text></g><g class="highcharts-tooltip" style="cursor:default;padding:0;pointer-events:none;white-space:nowrap;" transform="translate(0,-9000000000)"><path fill="none" d="M 3.5 0.5 L 13.5 0.5 C 16.5 0.5 16.5 0.5 16.5 3.5 L 16.5 13.5 C 16.5 16.5 16.5 16.5 13.5 16.5 L 3.5 16.5 C 0.5 16.5 0.5 16.5 0.5 13.5 L 0.5 3.5 C 0.5 0.5 0.5 0.5 3.5 0.5" isShadow="true" stroke="black" stroke-opacity="0.049999999999999996" stroke-width="5" transform="translate(1, 1)"></path><path fill="none" d="M 3.5 0.5 L 13.5 0.5 C 16.5 0.5 16.5 0.5 16.5 3.5 L 16.5 13.5 C 16.5 16.5 16.5 16.5 13.5 16.5 L 3.5 16.5 C 0.5 16.5 0.5 16.5 0.5 13.5 L 0.5 3.5 C 0.5 0.5 0.5 0.5 3.5 0.5" isShadow="true" stroke="black" stroke-opacity="0.09999999999999999" stroke-width="3" transform="translate(1, 1)"></path><path fill="none" d="M 3.5 0.5 L 13.5 0.5 C 16.5 0.5 16.5 0.5 16.5 3.5 L 16.5 13.5 C 16.5 16.5 16.5 16.5 13.5 16.5 L 3.5 16.5 C 0.5 16.5 0.5 16.5 0.5 13.5 L 0.5 3.5 C 0.5 0.5 0.5 0.5 3.5 0.5" isShadow="true" stroke="black" stroke-opacity="0.15" stroke-width="1" transform="translate(1, 1)"></path><path fill="rgba(249, 249, 249, .85)" d="M 3.5 0.5 L 13.5 0.5 C 16.5 0.5 16.5 0.5 16.5 3.5 L 16.5 13.5 C 16.5 16.5 16.5 16.5 13.5 16.5 L 3.5 16.5 C 0.5 16.5 0.5 16.5 0.5 13.5 L 0.5 3.5 C 0.5 0.5 0.5 0.5 3.5 0.5"></path><text x="8" style="font-size:12px;color:#333333;fill:#333333;" y="20"></text></g></svg>