<?xml version="1.0" encoding="UTF-8"?>
<!-- Created with Inkscape (http://www.inkscape.org/) -->
<svg width="578.48mm" height="442.66mm" version="1.1" viewBox="0 0 578.48 442.66" xmlns="http://www.w3.org/2000/svg">
 <g transform="translate(-8.5182 -29.456)">
  <path transform="matrix(.68117 0 0 .68117 163.54 -849.98)" d="m381.41 1763.7c-33.95 33.913-22.074-32.07-63.054-7.5393-40.98 24.531 12.913 36.893-31.503 55.045-44.416 18.152-9.7536-33.777-56.039-27.745-46.286 6.0318-0.50255 52.287-48.005 48.19-47.503-4.097 4.7297-37.636-41.15-50.159-45.88-12.523-12.43 44.58-54.462 23.354-42.032-21.226 13.082-31.193-23.923-60.85-37.005-29.657-35.336 40.159-67.424 4.8079-32.087-35.351 23.356-22.991-0.37479-63.39-23.731-40.399-46.946 12.538-62.74-32.814-15.794-45.352 45.06-5.6224 36.731-52.749-8.3291-47.127-46.475 3.5696-46.633-43.415-0.15793-46.985 29.539 2.3015 40.308-44.196 10.77-46.497-35.171-28.126-15.529-71.36 19.642-43.234 30.265 21.912 57.191-16.642 26.926-38.554-23.28-31.949 12.55-62.233 35.83-30.283 24.045 30.569 63.037 4.3285 38.992-26.24-16-42.669 28.463-57.451 44.463-14.782-2.5704 37.219 43.953 29.013 46.524-8.2055 0.18437-48.612 47.989-45.99 47.805 2.6225 10.199 29.803 56.561 40.837 46.362 11.034 9.3552-32.044 52.047-10.378 42.692 21.666-10.435 20.463 26.337 49.677 36.772 29.214 23.869-34.33 56.513 0.5088 32.644 34.838-14.429 31.147 10.494 71.548 24.924 40.401 34.066-23.475 49.597 21.853s-38.567 9.2236-32.544 56.217 52.998-0.576 51.402 47.439c-1.5965 48.015-46.479 6.1077-56.883 52.852s46.353 11.831 27.317 55.468c-19.036 43.637-34.724-24.464-63.7 13.474s37.422 38.383 3.4715 72.296z" fill="#630660" fill-opacity=".92461" stroke="#000" stroke-linecap="square" stroke-width="1.5118"/>
  <g transform="matrix(.5596 .0066954 -.0067635 .56529 352.35 258.51)">
   <g stroke-width="0">
    <path d="m-16.041-37.166c3.2254 1.3975 7.2947 2.3249 9.7691 2.7691 3.4469 0.51357 7.1235-0.20307 10.432-1.1652 2.9039-0.82412 6.3646-2.9972 8.578-4.7689 0 0 4.1603-3.6208 7.1091-6.4855 13.486-12.416 33.666-32.625 39.851-38.604 0 0 3.23e-4 -3.36e-4 3.23e-4 -3.36e-4 0.50957-0.58768 1.0348-1.1669 1.5938-1.7258l42.428-42.428c12.664-12.664 28.104-7.7134 40.769 4.9509l4.3874 4.3874c-3.2254-1.3975-7.295-2.3246-9.7694-2.7688-3.4469-0.51358-7.1232 0.20274-10.431 1.1649-2.9039 0.82411-6.3646 2.9972-8.578 4.7688 0 0-4.1606 3.6205-7.1095 6.4852-13.486 12.416-33.666 32.625-39.851 38.604 0 0-3.3e-4 3.36e-4 -3.3e-4 3.36e-4 -0.25473 0.29379-0.51342 0.58563-0.77825 0.87368-1e-4 1.16e-4 -2.2e-4 2.2e-4 -3.2e-4 3.36e-4 -0.13237 0.14397-0.26632 0.28684-0.40204 0.42884-1e-4 1.03e-4 -2.2e-4 2.07e-4 -3.2e-4 3.23e-4 -0.13574 0.14199-0.27318 0.28297-0.41283 0.42261-1.1e-4 1.16e-4 -2.1e-4 2.32e-4 -3.1e-4 3.36e-4l-42.428 42.428c-12.664 12.664-28.104 7.7134-40.769-4.9509z" fill="#6f36ff" fill-opacity=".81981"/>
    <path d="m-16.041-37.166c3.2254 1.3975 7.88 4.3742 10.354 4.8184 3.4469 0.51358 1.3961 0.53378 6.0095 0.15522 2.9039-0.82411 7.8606-2.4256 12.449-6.6434 0 0 6.6073-6.4903 9.5562-9.355 13.486-12.416 31.185-31.25 37.37-37.229l3.23e-4 -3.36e-4c0.50957-0.58768 1.0348-1.1669 1.5938-1.7258l42.428-42.428c12.664-12.664 28.104-7.7134 40.769 4.9509l4.3874 4.3874c-3.2254-1.3976-8.4127-3.936-10.485-4.4266-3.4469-0.51358-5.7552-0.94679-9.0633 0.0154-2.9039 0.82409-7.0217 3.0848-9.2351 4.8565 0 0-4.475 3.8186-7.4238 6.6832-13.486 12.416-33.347 35.147-39.532 41.126l-3.2e-4 3.36e-4c-0.25473 0.29379-0.51342 0.58563-0.77822 0.87371-1e-4 1.16e-4 -2.3e-4 2.2e-4 -3.2e-4 3.36e-4 -0.13249 0.14386-0.26633 0.28681-0.40204 0.42884-1e-4 1.16e-4 -2.1e-4 2.06e-4 -3.2e-4 3.23e-4 -0.1357 0.14203-0.27301 0.28314-0.41266 0.42279l-3.3e-4 3.23e-4 -42.428 42.428c-12.664 12.664-28.104 7.7134-40.769-4.9509z" fill="#1592a6"/>
    <path d="m-233.41-36.844c3.1753 1.3758 7.1816 2.2888 9.6176 2.7262 3.3934 0.50562 7.013-0.19991 10.27-1.1472 2.8589-0.81132 6.2658-2.9507 8.445-4.6949 0 0 4.0957-3.5647 6.9989-6.3849 13.276-12.223 33.144-32.119 39.233-38.005l3.2e-4 -3.36e-4c0.50167-0.57856 1.0188-1.1488 1.569-1.699l41.77-41.77c12.468-12.468 27.668-7.5938 40.136 4.8741l4.3193 4.3193c-3.1753-1.3758-7.1819-2.2885-9.6179-2.7258-3.3934-0.50561-7.0127 0.1996-10.269 1.1468-2.8589 0.81133-6.2659 2.9507-8.445 4.6949 0 0-4.0961 3.5644-6.9992 6.3846-13.276 12.223-33.144 32.119-39.232 38.005l-3.1e-4 3.23e-4c-0.2508 0.28924-0.50546 0.57654-0.76619 0.86012-9e-5 1.16e-4 -2e-4 2.2e-4 -3.2e-4 3.23e-4 -0.13031 0.14174-0.26217 0.2824-0.3958 0.4222-1e-4 1.03e-4 -2.2e-4 2.07e-4 -3.2e-4 3.1e-4 -0.13362 0.13979-0.26892 0.27859-0.40642 0.41607-1e-4 1.16e-4 -2e-4 2.19e-4 -3.1e-4 3.23e-4l-41.769 41.769c-12.468 12.468-27.668 7.5938-40.136-4.8741z" fill="#6f36ff" fill-opacity=".81981"/>
    <path d="m-233.41-36.844c3.1753 1.3759 7.7578 4.3063 10.194 4.7436 3.3934 0.50561 1.3745 0.52551 5.9163 0.15282 2.8589-0.81132 7.7386-2.3879 12.256-6.5403 0 0 6.5048-6.3897 9.4079-9.2099 13.276-12.224 30.701-30.766 36.79-36.652l3.2e-4 -3.23e-4c0.50167-0.57857 1.0188-1.1488 1.569-1.699l41.77-41.77c12.468-12.468 27.668-7.5938 40.136 4.8741l4.3193 4.3194c-3.1753-1.3759-8.2822-3.8749-10.322-4.358-3.3934-0.50562-5.6659-0.93211-8.9227 0.0151-2.8589 0.81132-6.9127 3.0369-9.0918 4.7811 0 0-4.4055 3.7593-7.3087 6.5795-13.276 12.224-32.83 34.602-38.918 40.488l-3.4e-4 3.23e-4c-0.25077 0.28924-0.50544 0.57654-0.76613 0.86015-1e-4 1.16e-4 -2.2e-4 2.2e-4 -3.2e-4 3.23e-4 -0.13043 0.14164-0.26219 0.28238-0.3958 0.4222-1e-4 1.16e-4 -2e-4 2.07e-4 -3.2e-4 3.23e-4 -0.13359 0.13982-0.26878 0.27875-0.40626 0.41623l-3.1e-4 3.23e-4 -41.769 41.769c-12.468 12.468-27.668 7.5938-40.136-4.8741z" fill="#1592a6"/>
    <path d="m-454.15-32.332c3.1753 1.3758 7.1816 2.2888 9.6176 2.7262 3.3934 0.50559 7.013-0.19993 10.27-1.1472 2.8589-0.81134 6.2659-2.9507 8.445-4.6949 0 0 4.0957-3.5647 6.9988-6.3849 13.276-12.223 33.144-32.119 39.233-38.005l3.2e-4 -3.23e-4c0.50166-0.57857 1.0188-1.1488 1.569-1.699l41.77-41.77c12.468-12.468 27.668-7.5938 40.136 4.8741l4.3193 4.3193c-3.1753-1.3758-7.1819-2.2885-9.6179-2.7258-3.3934-0.50561-7.0127 0.1996-10.269 1.1468-2.8589 0.81133-6.2659 2.9507-8.445 4.6949 0 0-4.096 3.5643-6.9992 6.3845-13.276 12.223-33.144 32.119-39.232 38.005l-3.2e-4 3.23e-4c-0.25078 0.28924-0.50545 0.57654-0.76617 0.86014-1e-4 1.16e-4 -2.2e-4 2.07e-4 -3.2e-4 3.23e-4 -0.13031 0.14174-0.26218 0.2824-0.3958 0.42218-1e-4 1.17e-4 -2.2e-4 2.2e-4 -3.2e-4 3.23e-4 -0.13363 0.13979-0.26894 0.27859-0.40642 0.41607-1e-4 1.03e-4 -2.1e-4 2.19e-4 -3.2e-4 3.23e-4l-41.769 41.769c-12.468 12.468-27.668 7.5938-40.136-4.8741z" fill="#6f36ff" fill-opacity=".81981"/>
    <path d="m-454.15-32.332c3.1753 1.3759 7.7578 4.3063 10.194 4.7436 3.3934 0.50561 1.3745 0.5255 5.9163 0.1528 2.8589-0.81131 7.7386-2.3879 12.256-6.5403 0 0 6.5048-6.3896 9.4079-9.2099 13.276-12.223 30.701-30.766 36.79-36.652l3.2e-4 -3.36e-4c0.50166-0.57856 1.0188-1.1488 1.569-1.699l41.77-41.77c12.468-12.468 27.668-7.5938 40.136 4.8741l4.3194 4.3194c-3.1753-1.3759-8.2822-3.8749-10.322-4.358-3.3934-0.50561-5.6659-0.9321-8.9227 0.0151-2.8589 0.81131-6.9127 3.0369-9.0918 4.7811 0 0-4.4055 3.7593-7.3087 6.5795-13.276 12.223-32.83 34.602-38.918 40.488l-3.2e-4 3.23e-4c-0.25077 0.28924-0.50544 0.57656-0.76614 0.86016-9e-5 1.16e-4 -2.2e-4 2.07e-4 -3.1e-4 3.23e-4 -0.13044 0.14163-0.26221 0.28238-0.3958 0.4222-1e-4 1.04e-4 -2.2e-4 2.07e-4 -3.2e-4 3.23e-4 -0.13359 0.13981-0.26879 0.27873-0.40627 0.41623l-3.2e-4 3.23e-4 -41.769 41.769c-12.468 12.468-27.668 7.5938-40.136-4.8741z" fill="#1592a6"/>
    <path d="m-345.46-31.791c3.1753 1.3759 7.1816 2.2888 9.6175 2.7262 3.3934 0.5056 7.013-0.19993 10.27-1.1472 2.8589-0.81133 6.2659-2.9507 8.4449-4.6949 0 0 4.0958-3.5647 6.9989-6.3849 13.276-12.223 33.144-32.119 39.233-38.005l3.3e-4 -3.26e-4c0.50166-0.57857 1.0188-1.1488 1.569-1.699l41.77-41.77c12.468-12.468 27.668-7.5938 40.136 4.8741l4.3193 4.3193c-3.1753-1.3758-7.1819-2.2885-9.6179-2.7259-3.3934-0.5056-7.0127 0.19961-10.269 1.1468-2.8589 0.81132-6.2658 2.9507-8.445 4.6949 0 0-4.096 3.5643-6.9992 6.3846-13.276 12.224-33.144 32.119-39.232 38.005l-3.2e-4 3.25e-4c-0.25079 0.28924-0.50546 0.57654-0.76617 0.86013-1.1e-4 1.14e-4 -2.2e-4 2.11e-4 -3.3e-4 3.26e-4 -0.13031 0.14174-0.26218 0.2824-0.39579 0.42219-1.1e-4 1.06e-4 -2.2e-4 2.12e-4 -3.3e-4 3.17e-4 -0.13363 0.13979-0.26893 0.2786-0.40641 0.41607-1.1e-4 1.14e-4 -2.1e-4 2.2e-4 -3.3e-4 3.26e-4l-41.769 41.769c-12.468 12.468-27.668 7.5938-40.136-4.8741z" fill="#6f36ff" fill-opacity=".81981"/>
    <path d="m-345.46-31.791c3.1753 1.3759 7.7578 4.3063 10.194 4.7436 3.3934 0.50561 1.3745 0.5255 5.9163 0.15282 2.8589-0.81132 7.7386-2.3879 12.256-6.5403 0 0 6.5048-6.3896 9.4079-9.2099 13.276-12.223 30.701-30.766 36.79-36.652l3.3e-4 -3.27e-4c0.50166-0.57857 1.0188-1.1488 1.569-1.699l41.77-41.77c12.468-12.468 27.668-7.5938 40.136 4.8741l4.3194 4.3194c-3.1753-1.3759-8.2822-3.8749-10.322-4.358-3.3934-0.50562-5.6659-0.93211-8.9227 0.0151-2.8589 0.81131-6.9127 3.0369-9.0918 4.7811 0 0-4.4055 3.7593-7.3087 6.5795-13.276 12.224-32.83 34.602-38.918 40.488l-3.2e-4 3.26e-4c-0.25077 0.28924-0.50544 0.57655-0.76615 0.86016-9e-5 1.15e-4 -2.2e-4 2.12e-4 -3.1e-4 3.26e-4 -0.13044 0.14163-0.2622 0.28237-0.39579 0.4222-1.1e-4 1.06e-4 -2.2e-4 2.03e-4 -3.3e-4 3.18e-4 -0.13359 0.13982-0.26878 0.27874-0.40626 0.41623l-3.2e-4 3.26e-4 -41.769 41.769c-12.468 12.468-27.668 7.5938-40.136-4.8741z" fill="#1592a6"/>
    <path d="m-124.72-36.312c3.1753 1.3759 7.1816 2.2888 9.6175 2.7262 3.3934 0.5056 7.013-0.19993 10.27-1.1472 2.8589-0.81133 6.2659-2.9507 8.445-4.6949 0 0 4.0957-3.5647 6.9989-6.3849 13.276-12.223 33.144-32.119 39.233-38.005 0 0 3.23e-4 -3.25e-4 3.23e-4 -3.25e-4 0.50166-0.57857 1.0188-1.1488 1.569-1.699l41.77-41.77c12.468-12.468 27.668-7.5938 40.136 4.8741l4.3193 4.3193c-3.1753-1.3758-7.1819-2.2885-9.6179-2.7258-3.3934-0.50561-7.0127 0.1996-10.269 1.1468-2.8589 0.81132-6.2659 2.9507-8.445 4.6949 0 0-4.096 3.5643-6.9992 6.3846-13.276 12.224-33.144 32.119-39.232 38.005 0 0-3.16e-4 3.25e-4 -3.16e-4 3.25e-4 -0.25078 0.28924-0.50545 0.57654-0.76618 0.86013-9.7e-5 1.13e-4 -2.12e-4 2.1e-4 -3.18e-4 3.25e-4 -0.13031 0.14174-0.26218 0.2824-0.3958 0.42219-1.06e-4 1.06e-4 -2.2e-4 2.12e-4 -3.26e-4 3.17e-4 -0.13362 0.13979-0.26893 0.27859-0.40642 0.41607-1.06e-4 1.14e-4 -2.12e-4 2.2e-4 -3.16e-4 3.26e-4l-41.769 41.769c-12.468 12.468-27.668 7.5938-40.136-4.8741z" fill="#6f36ff" fill-opacity=".81981"/>
    <path d="m-124.72-36.312c3.1753 1.3759 7.7578 4.3063 10.194 4.7436 3.3934 0.50561 1.3745 0.5255 5.9163 0.15281 2.8589-0.81132 7.7386-2.3879 12.256-6.5403 0 0 6.5048-6.3896 9.4079-9.2099 13.276-12.223 30.701-30.766 36.79-36.652l3.23e-4 -3.25e-4c0.50166-0.57857 1.0188-1.1488 1.569-1.699l41.77-41.77c12.468-12.468 27.668-7.5938 40.136 4.8741l4.3193 4.3193c-3.1753-1.3759-8.2822-3.8749-10.322-4.358-3.3934-0.50562-5.6659-0.93211-8.9227 0.0151-2.8589 0.81131-6.9127 3.0369-9.0918 4.7811 0 0-4.4055 3.7593-7.3087 6.5795-13.276 12.224-32.83 34.602-38.918 40.488l-3.25e-4 3.25e-4c-0.25077 0.28924-0.50544 0.57655-0.76614 0.86016-9.7e-5 1.15e-4 -2.2e-4 2.12e-4 -3.17e-4 3.25e-4 -0.13043 0.14163-0.2622 0.28237-0.3958 0.4222-1.05e-4 1.06e-4 -2.11e-4 2.03e-4 -3.17e-4 3.18e-4 -0.13359 0.13982-0.26878 0.27874-0.40627 0.41623l-3.18e-4 3.26e-4 -41.769 41.769c-12.468 12.468-27.668 7.5938-40.136-4.8741z" fill="#1592a6"/>
    <path d="m-74.534-32.217c-3.171 1.374-7.1718 2.2857-9.6045 2.7225-3.3888 0.50491-7.0034-0.19966-10.256-1.1456-2.855-0.81022-6.2573-2.9467-8.4335-4.6885 0 0-4.0902-3.5598-6.9893-6.3762-13.258-12.207-33.099-32.075-39.179-37.953 0 0-3.1e-4 -3.27e-4 -3.1e-4 -3.27e-4 -0.501-0.57778-1.0174-1.1472-1.5669-1.6967l-41.713-41.713c-12.451-12.451-27.631-7.5834-40.081 4.8675l-4.3135 4.3134c3.171-1.374 7.1721-2.2854 9.6048-2.7221 3.3888-0.50492 7.0031 0.19933 10.256 1.1453 2.855 0.81022 6.2573 2.9466 8.4335 4.6885 0 0 4.0905 3.5595 6.9896 6.3759 13.258 12.207 33.099 32.075 39.179 37.953 0 0 3.1e-4 3.25e-4 3.1e-4 3.25e-4 0.25044 0.28885 0.50478 0.57576 0.76515 0.85896 9e-5 1.14e-4 2.1e-4 2.12e-4 3.1e-4 3.26e-4 0.13014 0.14155 0.26182 0.28201 0.39525 0.42161 1.1e-4 1.06e-4 2.2e-4 2.14e-4 3.3e-4 3.18e-4 0.13344 0.1396 0.26857 0.27822 0.40586 0.4155 1e-4 1.15e-4 2.2e-4 2.2e-4 3.2e-4 3.26e-4l41.713 41.713c12.451 12.451 27.631 7.5834 40.081-4.8675z" fill="#6f36ff" fill-opacity=".81981"/>
    <path d="m-74.534-32.217c-3.171 1.374-7.7472 4.3004-10.18 4.7372-3.3888 0.50492-1.3726 0.52479-5.9083 0.15261-2.855-0.81022-7.7281-2.3847-12.239-6.5314 0 0-6.496-6.381-9.3951-9.1973-13.258-12.207-30.659-30.724-36.74-36.602l-3.2e-4 -3.24e-4c-0.50099-0.57778-1.0174-1.1472-1.5669-1.6967l-41.713-41.713c-12.451-12.451-27.631-7.5834-40.081 4.8675l-4.3135 4.3135c3.171-1.374 8.2709-3.8697 10.308-4.352 3.3888-0.50492 5.6582-0.93084 8.9106 0.015 2.855 0.8102 6.9033 3.0328 9.0794 4.7746 0 0 4.3996 3.7542 7.2987 6.5706 13.258 12.207 32.785 34.555 38.865 40.433l3.2e-4 3.25e-4c0.25043 0.28885 0.50477 0.57577 0.76511 0.85899 9e-5 1.15e-4 2.2e-4 2.12e-4 3.2e-4 3.25e-4 0.13025 0.14144 0.26183 0.28199 0.39526 0.42162 1e-4 1.05e-4 2e-4 2.03e-4 3.1e-4 3.17e-4 0.13341 0.13963 0.26842 0.27836 0.4057 0.41566l3.3e-4 3.26e-4 41.713 41.713c12.451 12.451 27.631 7.5834 40.081-4.8675z" fill="#38d5f7"/>
    <path d="m-293.78-31.115c-3.1753 1.3759-7.1816 2.2888-9.6176 2.7262-3.3934 0.5056-7.013-0.19993-10.27-1.1472-2.8589-0.81133-6.2659-2.9507-8.445-4.6949 0 0-4.0958-3.5647-6.9989-6.3849-13.276-12.224-33.144-32.119-39.233-38.005 0 0-3.1e-4 -3.26e-4 -3.1e-4 -3.26e-4 -0.50167-0.57857-1.0188-1.1488-1.569-1.699l-41.77-41.77c-12.468-12.468-27.668-7.5938-40.136 4.8741l-4.3193 4.3193c3.1753-1.3758 7.1819-2.2885 9.6179-2.7258 3.3934-0.50561 7.0127 0.1996 10.269 1.1468 2.8589 0.81133 6.2659 2.9507 8.445 4.6949 0 0 4.096 3.5644 6.9992 6.3846 13.276 12.224 33.144 32.119 39.232 38.005 0 0 3.1e-4 3.26e-4 3.1e-4 3.26e-4 0.25079 0.28924 0.50545 0.57654 0.76618 0.86013 9e-5 1.15e-4 2.1e-4 2.12e-4 3.1e-4 3.26e-4 0.13032 0.14174 0.26218 0.2824 0.3958 0.42218 1.2e-4 1.13e-4 2.2e-4 2.1e-4 3.4e-4 3.25e-4 0.13361 0.13979 0.26892 0.27858 0.4064 0.41607 1.2e-4 1.06e-4 2.2e-4 2.12e-4 3.2e-4 3.27e-4l41.769 41.769c12.468 12.468 27.668 7.5938 40.136-4.8741z" fill="#6f36ff" fill-opacity=".81981"/>
    <path d="m-293.02-30.255c-3.1753 1.3759-7.7578 4.3063-10.194 4.7436-3.3934 0.50561-1.3745 0.5255-5.9163 0.15281-2.8589-0.81132-7.7386-2.3879-12.256-6.5403 0 0-6.5048-6.3897-9.4079-9.2099-13.276-12.224-30.701-30.766-36.79-36.652l-3.3e-4 -3.25e-4c-0.50166-0.57857-1.0188-1.1488-1.569-1.699l-41.77-41.77c-12.468-12.468-27.668-7.5938-40.136 4.8741l-4.3193 4.3193c3.1753-1.3759 8.2822-3.8749 10.322-4.358 3.3934-0.50562 5.6659-0.93211 8.9227 0.0151 2.8589 0.81131 6.9128 3.0369 9.0918 4.7811 0 0 4.4055 3.7593 7.3087 6.5795 13.276 12.224 32.83 34.602 38.918 40.488l3.2e-4 3.26e-4c0.25077 0.28925 0.50546 0.57655 0.76615 0.86017 1e-4 1.13e-4 2.2e-4 2.1e-4 3.2e-4 3.25e-4 0.13043 0.14163 0.26219 0.28237 0.3958 0.42219 1e-4 1.06e-4 2e-4 2.11e-4 3.1e-4 3.17e-4 0.13359 0.13983 0.26878 0.27875 0.40626 0.41623l3.2e-4 3.25e-4 41.769 41.769c12.468 12.468 27.668 7.5938 40.136-4.8741z" fill="#38d5f7"/>
    <path d="m92.646-36.624c3.2254 1.3975 7.2947 2.3249 9.7691 2.7691 3.4469 0.51357 7.1235-0.20307 10.432-1.1652 2.9039-0.82412 6.3646-2.9972 8.578-4.7689 0 0 4.1603-3.6208 7.1092-6.4855 13.486-12.416 33.666-32.625 39.851-38.604l3.2e-4 -3.36e-4c0.50957-0.58768 1.0348-1.1669 1.5938-1.7258l42.428-42.428c12.664-12.664 28.104-7.7134 40.769 4.9509l4.3874 4.3874c-3.2253-1.3975-7.295-2.3246-9.7694-2.7688-3.4469-0.51358-7.1232 0.20274-10.431 1.1649-2.9039 0.82411-6.3646 2.9972-8.578 4.7688 0 0-4.1606 3.6205-7.1095 6.4852-13.486 12.416-33.666 32.625-39.851 38.604 0 0-3.3e-4 3.36e-4 -3.3e-4 3.36e-4 -0.25473 0.29379-0.51342 0.58563-0.77825 0.87368-1e-4 1.17e-4 -2.2e-4 2.2e-4 -3.2e-4 3.36e-4 -0.13237 0.14397-0.26632 0.28684-0.40204 0.42884-1e-4 1.03e-4 -2.2e-4 2.07e-4 -3.2e-4 3.23e-4 -0.13574 0.14199-0.27318 0.28297-0.41283 0.42261-1.1e-4 1.16e-4 -2.1e-4 2.32e-4 -3.1e-4 3.36e-4l-42.428 42.428c-12.664 12.664-28.104 7.7134-40.769-4.9509z" fill="#6f36ff" fill-opacity=".81981"/>
    <path d="m92.646-36.624c3.2254 1.3975 7.88 4.3742 10.354 4.8184 3.4469 0.51358 1.3961 0.53379 6.0095 0.15522 2.9039-0.82411 7.8606-2.4256 12.449-6.6434 0 0 6.6073-6.4903 9.5562-9.355 13.486-12.416 31.185-31.25 37.37-37.229l3.2e-4 -3.36e-4c0.50957-0.58768 1.0348-1.1669 1.5938-1.7258l42.428-42.428c12.664-12.664 28.104-7.7134 40.769 4.9509l4.3874 4.3874c-3.2254-1.3976-8.4127-3.936-10.485-4.4266-3.4469-0.51359-5.7552-0.94679-9.0633 0.0154-2.9039 0.8241-7.0217 3.0848-9.2351 4.8565 0 0-4.475 3.8186-7.4238 6.6832-13.486 12.416-33.347 35.147-39.532 41.126l-3.3e-4 3.36e-4c-0.25472 0.29379-0.51341 0.58563-0.77821 0.87371-1.1e-4 1.17e-4 -2.3e-4 2.2e-4 -3.3e-4 3.36e-4 -0.13249 0.14386-0.26632 0.28681-0.40203 0.42884-1.1e-4 1.16e-4 -2.1e-4 2.07e-4 -3.3e-4 3.23e-4 -0.13569 0.14203-0.273 0.28314-0.41266 0.42279l-3.2e-4 3.23e-4 -42.428 42.428c-12.664 12.664-28.104 7.7134-40.769-4.9509z" fill="#1592a6"/>
    <path d="m147.35-35.573c-3.1978 1.3856-7.2325 2.3051-9.6857 2.7455-3.4175 0.50918-7.0627-0.20135-10.343-1.1553-2.8791-0.81709-6.3103-2.9716-8.5048-4.7282 0 0-4.1248-3.5899-7.0485-6.4302-13.371-12.31-33.379-32.346-39.511-38.274l-3.2e-4 -3.33e-4c-0.50522-0.58267-1.026-1.1569-1.5802-1.7111l-42.066-42.066c-12.556-12.556-27.864-7.6476-40.421 4.9087l-4.35 4.35c3.1978-1.3856 7.2328-2.3047 9.6861-2.7452 3.4175-0.5092 7.0624 0.20103 10.342 1.155 2.8791 0.81709 6.3103 2.9716 8.5048 4.7282 0 0 4.1251 3.5896 7.0488 6.4298 13.371 12.31 33.379 32.347 39.511 38.275l3.2e-4 3.32e-4c0.25256 0.29128 0.50903 0.58063 0.77161 0.86623 9.1e-5 1.15e-4 2.06e-4 2.18e-4 3.21e-4 3.33e-4 0.13123 0.14274 0.26403 0.2844 0.39859 0.42517 1.15e-4 1.16e-4 2.3e-4 2.18e-4 3.34e-4 3.33e-4 0.13458 0.14078 0.27083 0.28056 0.40929 0.41902 1.15e-4 1.02e-4 2.19e-4 2.04e-4 3.21e-4 3.21e-4l42.066 42.066c12.556 12.556 27.864 7.6476 40.421-4.9087z" fill="#6f36ff" fill-opacity=".81981"/>
   </g>
   <path d="m147.35-35.573c-3.1978 1.3856-7.8128 4.3368-10.266 4.7773-3.4175 0.5092-1.3842 0.52923-5.9582 0.1539-2.8792-0.81707-7.7935-2.4049-12.343-6.5867 0 0-6.5509-6.435-9.4746-9.2752-13.371-12.31-30.919-30.984-37.051-36.912l-3.3e-4 -3.33e-4c-0.50521-0.58267-1.026-1.1569-1.5802-1.7111l-42.066-42.066c-12.556-12.556-27.864-7.6476-40.421 4.9087l-4.35 4.35c3.1978-1.3856 8.3409-3.9024 10.396-4.3889 3.4175-0.50919 5.7061-0.93871 8.9859 0.0153 2.8792 0.81707 6.9618 3.0585 9.1563 4.815 0 0 4.4368 3.786 7.3605 6.6262 13.371 12.31 33.062 34.847 39.194 40.775l3.33e-4 3.34e-4c0.25255 0.2913 0.50903 0.58064 0.77158 0.86626 1.02e-4 1.15e-4 2.17e-4 2.04e-4 3.19e-4 3.2e-4 0.13135 0.14264 0.26406 0.28438 0.3986 0.42518 1.15e-4 1.16e-4 2.18e-4 2.18e-4 3.2e-4 3.2e-4 0.13454 0.14082 0.27069 0.28074 0.40915 0.41919l42.066 42.066c12.556 12.556 27.864 7.6476 40.421-4.9087z" fill="#38d5f7"/>
   <g stroke-width="0">
    <path d="m-183.22-32.758c-3.171 1.374-7.1718 2.2857-9.6045 2.7225-3.3888 0.50492-7.0034-0.19966-10.256-1.1456-2.855-0.8102-6.2573-2.9466-8.4335-4.6885 0 0-4.0902-3.5598-6.9893-6.3762-13.258-12.207-33.099-32.075-39.179-37.953l-3.1e-4 -3.23e-4c-0.50101-0.57778-1.0174-1.1472-1.5669-1.6967l-41.713-41.713c-12.451-12.451-27.631-7.5834-40.081 4.8675l-4.3135 4.3134c3.171-1.374 7.1721-2.2854 9.6048-2.7221 3.3888-0.50493 7.0031 0.19933 10.256 1.1453 2.855 0.81021 6.2573 2.9466 8.4335 4.6885 0 0 4.0905 3.5595 6.9896 6.3759 13.258 12.207 33.099 32.075 39.179 37.953l3.2e-4 3.23e-4c0.25044 0.28885 0.50477 0.57576 0.76514 0.85896 9e-5 1.16e-4 2.1e-4 2.07e-4 3.1e-4 3.23e-4 0.13014 0.14155 0.26182 0.28202 0.39526 0.42162 1e-4 1.03e-4 2.2e-4 2.07e-4 3.2e-4 3.1e-4 0.13345 0.1396 0.26858 0.27822 0.40586 0.4155 1.1e-4 1.16e-4 2.2e-4 2.19e-4 3.3e-4 3.23e-4l41.713 41.713c12.451 12.451 27.631 7.5834 40.081-4.8675z" fill="#6f36ff" fill-opacity=".81981"/>
    <path d="m-183.22-32.758c-3.171 1.374-7.7472 4.3004-10.18 4.7372-3.3888 0.50492-1.3726 0.5248-5.9082 0.15261-2.855-0.81021-7.7281-2.3847-12.239-6.5314 0 0-6.496-6.381-9.3951-9.1973-13.258-12.207-30.659-30.724-36.74-36.602l-3.2e-4 -3.23e-4c-0.501-0.57778-1.0174-1.1472-1.5669-1.6967l-41.713-41.713c-12.451-12.451-27.631-7.5834-40.081 4.8675l-4.3135 4.3135c3.171-1.374 8.2709-3.8697 10.308-4.352 3.3888-0.50493 5.6582-0.93085 8.9106 0.015 2.855 0.8102 6.9033 3.0328 9.0794 4.7746 0 0 4.3996 3.7542 7.2987 6.5706 13.258 12.207 32.785 34.554 38.865 40.433l3.3e-4 3.23e-4c0.25043 0.28885 0.50476 0.57577 0.76511 0.85899 9e-5 1.16e-4 2.2e-4 2.07e-4 3.2e-4 3.23e-4 0.13024 0.14144 0.26183 0.28199 0.39525 0.42163 1e-4 1.04e-4 2.1e-4 1.94e-4 3.1e-4 3.11e-4 0.13341 0.13962 0.26842 0.27837 0.40571 0.41566l3.2e-4 3.23e-4 41.713 41.713c12.451 12.451 27.631 7.5834 40.081-4.8675z" fill="#38d5f7"/>
    <path d="m259.2-38.264c-3.212 1.3917-7.2645 2.3152-9.7286 2.7576-3.4326 0.51144-7.094-0.20223-10.388-1.1604-2.8919-0.8207-6.3382-2.9847-8.5425-4.7491 0 0-4.143-3.6058-7.0796-6.4586-13.43-12.365-33.527-32.49-39.686-38.444l-3.2e-4 -3.36e-4c-0.50747-0.58524-1.0306-1.162-1.5871-1.7186l-42.252-42.252c-12.612-12.612-27.988-7.6814-40.599 4.9304l-4.3692 4.3692c3.212-1.3917 7.2648-2.3149 9.7289-2.7573 3.4326-0.51145 7.0936 0.20191 10.388 1.1601 2.8919 0.82068 6.3382 2.9847 8.5424 4.7491 0 0 4.1434 3.6055 7.08 6.4582 13.43 12.365 33.526 32.49 39.685 38.444l3.2e-4 3.36e-4c0.25367 0.29259 0.51128 0.5832 0.77501 0.87006 1e-4 1.17e-4 2.2e-4 2.2e-4 3.3e-4 3.36e-4 0.13182 0.14339 0.26521 0.28566 0.40038 0.42706 1e-4 1.03e-4 2e-4 2.07e-4 3.2e-4 3.23e-4 0.13517 0.14141 0.27203 0.28181 0.41109 0.42087 1.1e-4 1.16e-4 2.2e-4 2.19e-4 3.3e-4 3.23e-4l42.252 42.252c12.612 12.612 27.988 7.6814 40.599-4.9304z" fill="#6f36ff" fill-opacity=".81981"/>
    <path d="m259.2-38.264c-3.212 1.3917-7.8473 4.356-10.311 4.7984-3.4326 0.51144-1.3904 0.53156-5.9846 0.15456-2.8919-0.82068-7.828-2.4155-12.397-6.6158 0 0-6.5799-6.4634-9.5166-9.3162-13.43-12.365-31.056-31.121-37.215-37.075l-3.4e-4 -3.23e-4c-0.50745-0.58525-1.0305-1.162-1.5871-1.7186l-42.252-42.252c-12.612-12.612-27.988-7.6814-40.599 4.9304l-4.3692 4.3692c3.212-1.3917 8.3778-3.9197 10.442-4.4083 3.4326-0.51143 5.7313-0.94286 9.0257 0.0152 2.8919 0.8207 6.9925 3.072 9.1968 4.8363 0 0 4.4564 3.8027 7.393 6.6555 13.43 12.365 33.209 35.001 39.368 40.955l3.4e-4 3.36e-4c0.25365 0.29259 0.51127 0.58321 0.77498 0.87009 9e-5 1.16e-4 2.2e-4 2.19e-4 3.4e-4 3.36e-4 0.13192 0.14327 0.26522 0.28564 0.40036 0.42707 1e-4 1.03e-4 2e-4 2.07e-4 3.1e-4 3.23e-4 0.13514 0.14144 0.27188 0.28195 0.41095 0.42102l3.2e-4 3.36e-4 42.252 42.252c12.612 12.612 27.988 7.6814 40.599-4.9304z" fill="#38d5f7"/>
    <path d="m38.666-36.123c-3.1978 1.3856-7.2325 2.3051-9.6858 2.7455-3.4175 0.50919-7.0627-0.20135-10.343-1.1553-2.8791-0.81709-6.3103-2.9716-8.5048-4.7282 0 0-4.1248-3.59-7.0485-6.4302-13.371-12.31-33.379-32.346-39.511-38.274l-3.1e-4 -3.36e-4c-0.50523-0.58267-1.026-1.1569-1.5802-1.7111l-42.066-42.066c-12.556-12.556-27.864-7.6476-40.421 4.9087l-4.35 4.35c3.1978-1.3856 7.2328-2.3047 9.6861-2.7452 3.4175-0.5092 7.0624 0.20102 10.342 1.155 2.8791 0.81709 6.3103 2.9716 8.5048 4.7282 0 0 4.1251 3.5896 7.0488 6.4298 13.371 12.31 33.379 32.347 39.511 38.275l3.11e-4 3.36e-4c0.25256 0.29128 0.50903 0.58063 0.77162 0.86622 9.1e-5 1.17e-4 1.94e-4 2.2e-4 3.11e-4 3.36e-4 0.13124 0.14274 0.26404 0.28441 0.3986 0.42517 1.17e-4 1.16e-4 2.33e-4 2.19e-4 3.36e-4 3.36e-4 0.13457 0.14078 0.27082 0.28056 0.40929 0.41902 1.16e-4 9e-5 2.19e-4 1.93e-4 3.23e-4 3.1e-4l42.066 42.066c12.556 12.556 27.864 7.6476 40.421-4.9087z" fill="#6f36ff" fill-opacity=".81981"/>
   </g>
   <path d="m38.195-36.465c-3.1978 1.3856-7.8128 4.3368-10.266 4.7773-3.4175 0.5092-1.3842 0.52922-5.9582 0.15388-2.8792-0.81706-7.7935-2.4049-12.343-6.5867 0 0-6.5509-6.435-9.4746-9.2752-13.371-12.31-30.919-30.984-37.051-36.912l-3.36e-4 -3.36e-4c-0.50521-0.58267-1.026-1.1569-1.5802-1.7111l-42.066-42.066c-12.556-12.556-27.864-7.6476-40.421 4.9087l-4.35 4.35c3.1978-1.3856 8.3409-3.9024 10.396-4.3889 3.4175-0.50919 5.706-0.93871 8.9859 0.0153 2.8792 0.81707 6.9618 3.0585 9.1563 4.815 0 0 4.4368 3.786 7.3605 6.6262 13.371 12.31 33.062 34.847 39.194 40.775l3.36e-4 3.36e-4c0.25255 0.2913 0.50903 0.58064 0.77157 0.86626 1.04e-4 1.17e-4 2.2e-4 2.07e-4 3.23e-4 3.23e-4 0.13134 0.14264 0.26405 0.28438 0.39859 0.42518 1.16e-4 1.16e-4 2.2e-4 2.19e-4 3.23e-4 3.23e-4 0.13455 0.14081 0.2707 0.28074 0.40916 0.41917l3.11e-4 3.23e-4 42.066 42.066c12.556 12.556 27.864 7.6476 40.421-4.9087z" fill="#38d5f7"/>
  </g>
  <g transform="matrix(2.4166 0 0 2.4166 50.01 -126.45)" fill="#fff" stroke-width=".11076" style="font-variant-ligatures:none" aria-label="YOUTH ACADEMY">
   <path d="m50.971 113.55c0-0.25993 0.03151-0.43321 0.09452-0.51985 0.06301-0.0945 0.16541-0.14178 0.30719-0.14178 0.07877 0 0.20873 0.0433 0.38989 0.12996 0.18116 0.0788 0.29537 0.15753 0.34263 0.2363 0.03151 0.0551 0.04726 0.12209 0.04726 0.20086 0 0.51985-0.25205 1.2799-0.75615 2.2803-0.5041 0.99245-0.92944 1.6817-1.276 2.0676-0.11815 0.1339-0.20479 0.23236-0.25993 0.29537-0.04726 0.0551-0.11027 0.15753-0.18904 0.30719-0.07877 0.14965-0.14178 0.27962-0.18904 0.38989-0.04726 0.11027-0.15359 0.36232-0.319 0.75615-0.16541 0.38595-0.33476 0.77191-0.50804 1.1579l-1.0161 2.2921c-0.11815 0.25205-0.319 0.37807-0.60256 0.37807-0.15753 0-0.29931-0.0473-0.42534-0.14178-0.12603-0.0945-0.18904-0.20085-0.18904-0.319 0-0.44897 0.46866-1.5753 1.406-3.3791l0.42961-1.274-1.7292-1.9633c-0.93732-0.91369-1.5517-1.532-1.8431-1.8549-0.29143-0.33082-0.43715-0.59075-0.43715-0.77979 0-0.0866 0.03544-0.1654 0.10633-0.23629 0.07089-0.0709 0.16935-0.10634 0.29537-0.10634 0.15753 0 0.38202 0.12209 0.67345 0.36626 0.79629 0.59474 3.4147 3.4874 4.0171 3.1073 0.2335-0.25919 0.39354-0.56324 0.5553-0.85067 0.09452-0.17329 0.22842-0.40958 0.40171-0.70889 0.17328-0.30719 0.33869-0.59075 0.49623-0.85068 0.11815-0.20479 0.17722-0.48441 0.17722-0.83886z"/>
   <path d="m58.911 118.84q0.07089-0.53167 0.319-1.4769 0.24811-0.95701 0.24811-1.1815 0-0.29537-0.319-0.88612-0.30719-0.60256-0.46078-0.75615-0.11815-0.0709-0.38989-0.0709-0.53167 0-1.3823 0.25992-1.7959 0.54349-2.2212 2.871-0.11815 0.73252-0.11815 0.93337 0 0.38989 0.28356 1.1342 0.62619 1.6777 1.7013 1.6777 0.27174 0 0.638-0.12996 0.37808-0.14178 0.99245-0.98064 0.62619-0.85067 0.70889-1.3942zm-0.82704 3.1428q-0.04726 0-0.10633 0.0827-0.04726 0.0827-0.09452 0.11815-0.17722 0.11815-0.68526 0.18904-0.50804 0.0827-0.98064 0.0827-0.35445 0-0.59074-0.0945-0.22448-0.0827-0.57893-0.33082-0.68526-0.51985-1.1815-1.6068t-0.49623-2.0558q0-1.1106 0.50804-2.2212t1.3233-1.6541q0.75615-0.49623 1.1342-0.51986 0.09452-0.0236 0.43715-0.33082 0.34263-0.30718 0.61438-0.30718 0.16541 0 0.319-0.1536 0.16541-0.16541 0.53167-0.16541 1.0043 0 1.595 0.92157 0.60256 0.90974 0.60256 2.4457 0 0.98064-0.24811 2.0322-0.24811 1.0397-0.61438 1.8077-0.35445 0.76797-0.76797 1.2642-0.41352 0.49622-0.72071 0.49622z"/>
   <path d="m67.264 113.3q0-0.24811 0.20085-0.35445 0.21267-0.11814 0.36626-0.11814 0.30719 0 0.50804 0.36626 0.21267 0.35444 0.34263 0.82704 0.12996 0.46078 0.20085 0.54349 0.15359 0.20085 0.15359 1.2169 0 1.087-0.17722 2.0322-0.17722 0.93338-0.46078 1.5832-0.28356 0.64982-0.66164 1.1697-0.36626 0.51985-0.74434 0.83885-0.37808 0.30719-0.76797 0.51986-0.38989 0.20085-0.68526 0.27174-0.28356 0.0827-0.49623 0.0827-0.40171 0-0.93338-0.18904-0.53167-0.20086-0.83886-0.48441-0.56712-0.54349-0.86249-3.19-0.28356-2.6584-0.28356-4.2534 0-0.53167 0.07089-0.74434 0.0827-0.22448 0.35445-0.36626 0.11815-0.0473 0.17722-0.0473 0.36626 0 0.4726 0.94519 0.01181 0.16541 0.04726 0.59075 0.15359 1.9613 0.46078 4.0052 0.30719 2.0322 0.50804 2.3039l0.02363 0.0354q0.02363 0.0354 0.03544 0.0709 0.02363 0.0236 0.07089 0.0591 0.04726 0.0354 0.09452 0.0709 0.05907 0.0236 0.14178 0.0473 0.09452 0.0118 0.20085 0.0118 0.41352 0 1.0397-0.37808 0.72071-0.42534 1.1342-1.0633 0.41352-0.64982 0.70889-1.7722 0.25993-0.957 0.25993-1.7132 0-0.60256-0.16541-1.2288t-0.33082-1.0633q-0.16541-0.44896-0.16541-0.62619z"/>
   <path d="m78.405 113.09q0.50804 0 0.90975 0.18904 0.40171 0.18904 0.40171 0.44897 0 0.20085-0.16541 0.34263-0.16541 0.12996-0.42534 0.17722-0.25993 0.0473-0.41352 0.0591-0.14178 0.0118-0.27174 0.0118-0.76797 0-1.725 0.20086l-0.80341 0.17722 0.15359 0.81523q0.14178 0.88612 0.33082 3.4145 0.18904 2.5284 0.22448 2.7883 0.03544 0.21267 0.03544 0.41352 0 0.56712-0.48441 0.56712-0.22448 0-0.36626-0.1536-0.12996-0.15359-0.24811-0.61437-0.10633-0.46078-0.17722-1.1342-0.05907-0.68527-0.14178-1.9022-0.0827-1.2051-0.20085-2.1385-0.10633-0.93337-0.21267-1.3705-0.09452-0.43715-0.17722-0.49622-0.07089-0.0473-0.21267-0.0473-0.09452 0-0.83886 0.11815t-1.1815 0.11815q-0.27174 0-0.77978 0.0945-0.50804 0.0827-0.70889 0.0827-0.33082 0-0.5553-0.14178-0.22448-0.15359-0.22448-0.37808 0-0.27174 0.34263-0.38989 0.28356-0.0945 2.3984-0.4017 1.8904-0.27175 3.7453-0.60256 1.4532-0.24812 1.7722-0.24812z"/>
   <path d="m82.612 121.56c0 0.38595-0.01969 0.67739-0.05907 0.8743s-0.08664 0.31506-0.14178 0.35445c-0.05513 0.0473-0.1339 0.0709-0.2363 0.0709-0.35445 0-0.58287-0.3387-0.68526-1.0161-0.09452-0.68526-0.19298-2.1739-0.29537-4.466-0.06301-1.4414-0.09452-2.5875-0.09452-3.4381 0-0.67739 0.03545-1.0948 0.10633-1.2524 0.14966-0.28356 0.32688-0.42534 0.53167-0.42534 0.06301 0 0.12209 0.0197 0.17722 0.0591 0.1024 0.18903 0.20873 0.97275 0.319 2.3512 0.11815 1.3705 0.22054 2.1503 0.30719 2.3394 0.77191-0.27568 1.6423-0.5553 2.6111-0.83886 0.4726-0.0945 0.78766-0.17329 0.94519-0.2363 0.07877-0.10239 0.16147-0.48047 0.24811-1.1342 0.08664-0.66163 0.17224-1.6372 0.25888-1.7868 0.06301-0.1024 0.20911-0.55116 0.39027-0.55116 0.18904 0 0.29211 0.62356 0.35512 0.74171-0.04926-0.48576 0.18116 1.5215 0.21267 3.0732 0.0079 0.29143 0.01575 0.64588 0.02363 1.0633 0.0079 0.62225 0.01575 1.1736 0.02363 1.6541 0.01575 0.4726 0.02757 0.83492 0.03545 1.087 0.01575 0.24418 0.02757 0.45291 0.03544 0.62619 0.0079 0.16541 0.01575 0.27569 0.02363 0.33082 0.0079 0.0551 0.01181 0.10633 0.01181 0.1536 0.0079 0.0394 0.01181 0.0788 0.01181 0.11814 0 0.12603-0.05514 0.22449-0.16541 0.29538-0.11027 0.0709-0.24024 0.10633-0.38989 0.10633-0.14178 0-0.25993-0.0354-0.35445-0.10633-0.14966-0.17329-0.24811-0.55136-0.29537-1.1342-0.04726-0.59075-0.07877-1.2524-0.09452-1.9849-0.01575-0.73252-0.0512-1.2484-0.10633-1.5478-0.05513 0.0157-0.38989 0.15751-1.0043 0.42534-0.61438 0.2678-1.2287 0.50804-1.8431 0.72071l-0.95701 0.34263 0.07089 2.0204c0.01575 0.56711 0.02363 0.93731 0.02363 1.1106z"/>
   <path d="m97.498 122.52q-0.15359 0-0.33082-0.0709-0.17722-0.0709-0.17722-0.22448 0-0.22448 0.24811-0.57893 0.24811-0.36626 0.24811-0.48441 0-0.42534 0.25993-0.56711 0.04726-0.0236 0.14178-0.27175 0.10633-0.25993 0.24811-0.59074 0.14178-0.33082 0.28356-0.48441 0.319-0.33082 1.2169-2.4575 0.3899-0.90975 1.087-2.1858 0.69708-1.276 0.90975-1.465 0.28356-0.0945 0.34263-0.0945 0.18904 0 0.3899 0.11815 0.20085 0.2363 0.70889 1.4178 0.51985 1.1697 0.51985 1.5005 0.0118 0.2363 0.22449 1.0633 0.21267 0.81523 0.29537 1.2996 0.0591 0.44897 0.36626 1.5123 0.30719 1.0633 0.30719 1.3351 0 0.12997-0.0591 0.18904-0.0591 0.0591-0.25993 0.0591-0.1536 0-0.43715-0.12997-0.18904-0.0945-0.29538-0.24811-0.0945-0.15359-0.14178-0.319-0.0354-0.16541-0.15359-0.63801-0.10633-0.47259-0.2363-0.92156l-0.22448-0.76797-0.50804 0.0591q-0.74434 0.0945-1.6068 0.15359l-0.85067 0.0591-0.34263 0.50804q-0.92156 1.3469-1.4414 2.5875-0.27174 0.638-0.73252 0.638zm4.9386-5.1631q0-0.22448-0.21266-1.1342-0.20086-0.92156-0.35445-1.2878-0.319 0.44896-0.64982 1.146t-0.50804 1.1697l-0.17722 0.47259 0.77978-0.0473q0.73252-0.0473 0.92156-0.0945 0.20085-0.0473 0.20085-0.22449z"/>
   <path d="m113.21 113.86q0 0.30719-0.33082 0.30719-0.21267 0-0.40171-0.11815-0.17722-0.12996-0.24811-0.25993l-0.0709-0.11815q-0.0473-0.0591-0.17722-0.0591-0.60256 0-1.5005 0.37808-0.89793 0.37807-1.3823 0.85067-0.40171 0.38989-0.60256 1.2288t-0.20085 2.5048q0 0.7916 0.22448 1.276 0.21267 0.46078 0.62619 0.75615t0.85067 0.29537q0.27175 0 0.83886-0.24811 0.56712-0.24811 0.80341-0.4726l0.64982-0.60256q0.29538-0.27174 0.61438-0.7207 0.33082-0.46079 0.54348-0.72071 0.22449-0.25993 0.40171-0.25993 0.0827 0.0236 0.11815 0.0354 0.0473 0.0118 0.10633 0.12997 0.0591 0.11815 0.0591 0.319 0 0.24811-0.34263 0.83886-0.34264 0.57893-0.88612 1.2288-0.54349 0.638-1.3469 1.1224t-1.5832 0.48441q-1.6423 0-2.5875-1.8431-0.12996-0.25993-0.12996-1.6186 0-2.4339 0.23629-3.2373 0.31901-1.0988 1.5832-1.9258 1.276-0.82705 2.4457-0.82705 0.66163 0 1.1697 0.40171 0.51986 0.38989 0.51986 0.8743z"/>
   <path d="m116.34 122.52q-0.1536 0-0.33082-0.0709t-0.17722-0.22448q0-0.22448 0.24811-0.57893 0.24811-0.36626 0.24811-0.48441 0-0.42534 0.25993-0.56711 0.0473-0.0236 0.14178-0.27175 0.10633-0.25993 0.24811-0.59074 0.14178-0.33082 0.28356-0.48441 0.319-0.33082 1.2169-2.4575 0.3899-0.90975 1.087-2.1858 0.69707-1.276 0.90974-1.465 0.28356-0.0945 0.34263-0.0945 0.18904 0 0.3899 0.11815 0.20085 0.2363 0.70889 1.4178 0.51986 1.1697 0.51986 1.5005 0.0118 0.2363 0.22448 1.0633 0.21267 0.81523 0.29537 1.2996 0.0591 0.44897 0.36626 1.5123 0.30719 1.0633 0.30719 1.3351 0 0.12997-0.0591 0.18904-0.0591 0.0591-0.25993 0.0591-0.1536 0-0.43715-0.12997-0.18904-0.0945-0.29538-0.24811-0.0945-0.15359-0.14177-0.319-0.0354-0.16541-0.1536-0.63801-0.10633-0.47259-0.2363-0.92156l-0.22448-0.76797-0.50804 0.0591q-0.74434 0.0945-1.6068 0.15359l-0.85067 0.0591-0.34263 0.50804q-0.92156 1.3469-1.4414 2.5875-0.27174 0.638-0.73252 0.638zm4.9386-5.1631q0-0.22448-0.21267-1.1342-0.20086-0.92156-0.35445-1.2878-0.319 0.44896-0.64982 1.146t-0.50804 1.1697l-0.17722 0.47259 0.77978-0.0473q0.73252-0.0473 0.92156-0.0945 0.20086-0.0473 0.20086-0.22449z"/>
   <path d="m128.95 114.06q-0.29537 0-0.36626 0.0591-0.0709 0.0591-0.0709 0.30719 0 0.37807 0.33081 2.7765 0.34264 2.3866 0.34264 3.131 0 0.25993-0.0236 0.49622l-0.0709 0.42534h0.48441q1.0515 0 2.4457-1.4414 0.7916-0.81523 1.0633-1.6541 0.27175-0.83886 0.27175-2.0558 0-0.48441-0.0709-0.66163t-0.34264-0.46078q-0.28355-0.28356-0.62619-0.41352-0.33081-0.12997-1.1224-0.27175-1.5005-0.23629-2.2448-0.23629zm-3.5917 0.27174q0.0236-0.28356 0.21267-0.51986 0.20085-0.24811 0.37807-0.24811 0.11815-0.0354 0.22449-0.20085 0.22448-0.34264 1.276-0.44897 1.2406-0.11815 1.7013-0.11815 0.54349 0 1.3233 0.12997 2.233 0.35444 3.131 1.0633 0.90975 0.69708 0.90975 2.1149 0 1.2288-0.44897 2.3275-0.44897 1.0988-1.1579 1.8431t-1.5123 1.2288q-0.7916 0.48441-1.5596 0.64982-0.25993 0.0709-0.3899 0.18904-0.12996 0.12996-0.14178 0.24811-0.0118 0.11815-0.0945 0.2363-0.0827 0.12997-0.25993 0.18904-0.11815 0.0354-0.24811 0.0354-0.21267 0-0.36627-0.0827-0.14178-0.0709-0.15359-0.20085l-0.17722-0.0709q-0.18904-0.0827-0.30719-0.2363-0.11815-0.14178-0.11815-0.38989 0-0.41352 0.319-0.53167 0.12997-0.0945 0.12997-0.83886 0-0.46078-0.0591-0.94519t-0.20085-1.465q-0.12997-0.99245-0.24811-2.1976l-0.17723-1.8313-0.27174 0.0236q-0.36626 0.0473-0.69708 0.35445-0.33082 0.29537-0.4726 0.29537-0.15359 0-0.35444-0.20086-0.18904-0.21266-0.18904-0.4017z"/>
   <path d="m136.17 115.09q0-0.69708 0.18904-1.0043 0.18903-0.31901 0.42533-0.31901 0.0945 0 0.40171-0.15359 0.319-0.15359 0.70889-0.33082 0.40171-0.18904 1.0988-0.34263 0.70889-0.15359 1.5005-0.15359 1.2406 0 1.2406 0.47259 0 0.319-1.276 0.50804-1.0279 0.1536-1.8786 0.42534-0.85068 0.27174-1.1224 0.50804-0.15359 0.14178-0.15359 0.37808 0 0.0236 0.0591 0.60256 0.0591 0.57893 0.12997 1.2051 0.0709 0.62619 0.0945 0.70889 0.29537-0.12996 1.4769-0.37808 1.1933-0.24811 1.6423-0.24811 0.24811 0 0.36626 0.12996 0.11815 0.12997 0.11815 0.28356 0 0.18904-0.14178 0.30719-0.27174 0.25993-1.7368 0.59074-1.465 0.31901-1.6068 0.40171-0.0709 0.0473-0.0709 0.1536 0 0.86248 0.0236 1.4178l0.0354 0.83886h0.49623q0.5553 0 1.4178-0.21267 0.86249-0.21267 1.4296-0.49622 0.4017-0.22449 0.5553-0.22449 0.20085 0 0.35444 0.18904 0.16541 0.18904 0.16541 0.36626 0 0.36627-0.72071 0.74434-0.70889 0.37808-1.6895 0.60256-0.96882 0.22449-1.7604 0.22449-0.93337 0-1.1342-0.34264-0.12996-0.22448-0.20085-1.0043-0.0709-0.77979-0.16541-2.2448-0.0827-1.4769-0.18904-2.5402-0.0827-0.99245-0.0827-1.0633z"/>
   <path d="m144.36 122.99q-0.46078 0-0.56712-1.0752-0.10633-1.0752-0.10633-5.2458 0-2.0794 0.0354-2.8592 0.0354-0.77978 0.14178-0.92156 0.22448-0.28356 0.53167-0.28356 0.25993 0 0.43715 0.34263 0.18904 0.33082 0.44897 1.1933 0.37808 1.2642 0.80341 2.1739 0.42534 0.90975 0.62619 1.0633 0.12997-0.0827 0.40171-0.47259 0.28356-0.40171 0.7916-1.2996 0.51985-0.89794 1.1342-2.1267 0.16541-0.34264 0.47259-0.57893 0.31901-0.2363 0.61438-0.2363 0.21267 0 0.36626 0.14178 0.30719 0.27174 0.38989 1.0988 0.0827 0.81523 0.10634 3.3791 0.0118 1.5478 0.0709 2.5048 0.0591 0.95701 0.11815 1.2051 0.0709 0.24811 0.11815 0.42534 0.0473 0.17722 0.0473 0.35445 0 0.51985-0.48441 0.51985-0.2363 0-0.46078-0.14178-0.21267-0.14178-0.29537-0.37807-0.0827-0.22449-0.1536-1.7132-0.0709-1.5005-0.12996-3.2491-0.0591-1.7486-0.11815-2.2921-0.0827 0.15359-0.38989 0.79159-0.29537 0.62619-1.0279 1.8431-0.27174 0.44897-0.85067 0.83886-0.56711 0.37807-1.0279 0.37807-0.17722 0-0.47259-0.319-0.28356-0.33082-0.5553-0.77978l-0.33082-0.54349v2.4811q0 1.6186-0.0709 2.4221-0.0591 0.80341-0.20085 1.0752-0.14178 0.28356-0.41352 0.28356z"/>
   <path d="m159.61 113.55q0-0.38989 0.0945-0.51985 0.0945-0.14178 0.30719-0.14178 0.11815 0 0.38989 0.12996 0.27174 0.11815 0.34263 0.2363 0.0473 0.0827 0.0473 0.20086 0 0.77978-0.75615 2.2803-0.75616 1.4887-1.276 2.0676-0.17722 0.20085-0.25993 0.29537-0.0709 0.0827-0.18904 0.30719-0.11815 0.22448-0.18904 0.38989-0.0709 0.16541-0.319 0.75615-0.24811 0.57893-0.50804 1.1579l-1.0161 2.2921q-0.17722 0.37807-0.60256 0.37807-0.2363 0-0.42534-0.14178-0.18903-0.14178-0.18903-0.319 0-0.67345 1.406-3.3791l0.68526-1.3233-1.9849-1.914q-1.406-1.3705-1.8431-1.8549-0.43715-0.49623-0.43715-0.77979 0-0.12996 0.10634-0.23629 0.10633-0.10634 0.29537-0.10634 0.2363 0 0.67345 0.36626 0.43715 0.35445 2.1149 1.9258 1.2996 1.1224 1.6895 1.2996 0.10633-0.0118 0.21267-0.11815 0.10633-0.10633 0.25992-0.34263 0.1536-0.24811 0.29538-0.50804 0.14177-0.25993 0.4017-0.70889 0.25993-0.46079 0.49623-0.85068 0.17722-0.30718 0.17722-0.83886z"/>
  </g>
  <text x="297.81207" y="277.9816" fill="#ffffff" font-family="Purisa" font-size="26.545px" font-weight="bold" stroke-width=".58556" text-anchor="middle" style="font-variant-caps:normal;font-variant-east-asian:normal;font-variant-ligatures:none;font-variant-numeric:normal;line-height:1.25" xml:space="preserve"><tspan x="297.81207" y="277.9816" text-align="center" style="font-variant-caps:normal;font-variant-east-asian:normal;font-variant-ligatures:none;font-variant-numeric:normal">GENOMIC</tspan><tspan x="297.81207" y="311.16336" text-align="center" style="font-variant-caps:normal;font-variant-east-asian:normal;font-variant-ligatures:none;font-variant-numeric:normal">DATA SCIENCE</tspan></text>
  <text x="9.9690113" y="462.12363" fill="#000000" font-family="Purisa" font-size="25.249px" font-style="oblique" font-weight="bold" stroke-width=".35856" style="font-variant-caps:normal;font-variant-east-asian:normal;font-variant-ligatures:none;font-variant-numeric:normal;line-height:1.25" xml:space="preserve"><tspan x="9.9690113" y="462.12363" fill="#000000" font-family="Purisa" font-size="25.249px" font-style="oblique" font-weight="bold" stroke-width=".35856" style="font-variant-caps:normal;font-variant-east-asian:normal;font-variant-ligatures:none;font-variant-numeric:normal">National University of Ireland, Galway</tspan></text>
  <path d="m129.45 258.94c0.89817-1.6753 2.008-3.2244 3.0663-4.8001 1.091-1.5865 2.2276-3.1396 3.39-4.6741 0.932-1.3646 1.7192-2.82 2.686-4.1606 0.95514-1.3744 1.9883-2.6815 3.1271-3.9072 0.98836-0.93237 1.7698-2.0858 2.9369-2.8052-5.8457 3.6451-2.0523 0.75187-0.54153 0.73495 0.11778 0.054 0.26324 0.069 0.35334 0.16214 0.37239 0.38493 0.99558 1.5712 1.1747 1.9403 0.74062 1.5264 1.3043 3.1372 1.8803 4.7298 1.0513 3.0288 2.0695 6.0648 2.9984 9.1335 0.78774 2.8939 1.9752 5.637 3.1946 8.3677 0.34866 0.78495 1.3594 2.79 2.3299 3.0148 0.17699 0.041 0.3628-0.0201 0.5442-0.03 1.2826-0.8388 2.6578-1.5507 3.8479-2.5164 0.24184-0.19623 0.84796-2.061 0.8993-2.2234 0.44301-1.4009 0.74295-2.8351 1.0603-4.2678 0.42076-2.1086 0.76607-4.2357 1.4215-6.2893 0.21844-0.68442 0.80593-2.2038 1.0634-2.8814 0.86307-1.8686 1.4964-3.8625 2.5861-5.6173 0.12109-0.15 0.22222-0.31858 0.36326-0.44999 0.10324-0.0962 0.48053-0.29599 0.35954-0.2234-1.049 0.62935-2.1446 1.1875-3.1435 1.8937-0.078 0.0551 0.17865 0.0857 0.23637 0.16174 0.31887 0.42013 0.56995 1.2065 0.73701 1.6338 1.373 4.0394 2.3543 8.1979 3.6324 12.267 0.47719 1.4241 0.97902 2.8485 1.6713 4.1854 0.21026 0.40601 0.55969 1.1131 1.0123 1.3599 0.22279 0.12149 0.49621 0.1065 0.74432 0.15975 1.4378-0.90539 2.9791-1.664 4.3132-2.7162 0.44619-0.35187 2.1635-3.2711 2.3368-3.5769 1.2462-2.2004 2.3224-4.4984 3.422-6.7736 0.92325-2.016 1.8593-4.0269 2.9124-5.9793 0.3028-0.56141 1.1692-2.1485 1.6354-2.7112 0.22037-0.26598 0.51489-0.46058 0.77233-0.69087-0.8767 0.55568-1.848 0.98456-2.6301 1.667-0.16237 0.14169 0.46319-0.0517 0.643 0.067 0.29758 0.19657 0.50916 0.50962 0.69277 0.81537 1.1333 1.8872 1.7242 4.4507 2.3738 6.5341 1.2024 3.7465 2.2375 7.558 3.6717 11.226 0.16345 0.10332 0.31631 0.39423 0.49034 0.30995 1.4428-0.69872 2.8482-1.5159 4.091-2.5285 0.43175-0.35181 0.5372-0.97578 0.80738-1.4628 0.40979-0.73868 0.81672-1.479 1.2325-2.2143 1.0363-1.8326 2.0925-3.6539 3.138-5.4813 1.3645-2.3979 2.8015-4.7467 4.3961-6.9984 0.92901-1.3118 1.7576-2.441 2.9052-3.5567-0.8649 0.55976-1.8668 0.95025-2.5947 1.6793-0.17596 0.17624 0.51398 0.0586 0.72046 0.19784 0.34276 0.23115 0.61829 0.55481 0.87554 0.87845 1.4013 1.763 2.2963 3.9201 3.253 5.933 2.1622 4.8072 4.3203 9.6157 6.5188 14.407 0.22206 0.34635 0.33969 0.78869 0.66617 1.039 0.2254 0.17284 0.59904 0.26299 0.84378 0.11884 1.559-0.91827 3.0762-1.95 4.3855-3.1988 0.61224-0.58398 0.86284-1.456 1.2714-2.1969 1.2493-2.2654 2.4476-4.5587 3.6885-6.8287 1.7512-3.2142 3.5264-6.4185 5.4703-9.5215 0.42158-0.67295 1.8751-2.9259 2.4875-3.667 0.2844-0.34418 0.63468-0.62813 0.95202-0.94219-0.80375 0.57498-1.964 0.8437-2.4112 1.725-0.20995 0.41371 0.80732 0.4884 1.1092 0.84064 0.53932 0.62919 0.96952 1.3478 1.3824 2.0663 1.7859 3.1076 3.0887 6.5217 4.5187 9.7988 1.2828 2.8465 2.4231 5.7532 3.6188 8.6364 0.59387 1.432 1.1567 2.8595 1.9277 4.2045 0.18915 0.1147 0.3739 0.45114 0.56747 0.34406 1.6191-0.89559 3.2041-1.909 4.5524-3.1761 0.74205-0.69736 1.0794-1.7273 1.5978-2.6037 0.67643-1.1436 1.326-2.3029 1.9863-3.4559 1.4198-2.4789 2.8331-4.9615 4.2502-7.4419 1.6888-2.958 3.4592-5.8738 5.3839-8.6853 0.50899-0.7435 1.7814-2.5529 2.4891-3.2918 0.30021-0.31341 0.66576-0.55692 0.99863-0.83539-0.80828 0.53334-1.7895 0.86914-2.4248 1.6-0.19008 0.21868 0.59827 0.0635 0.84012 0.22308 0.39981 0.26378 0.72477 0.63391 1.0248 1.0073 1.8685 2.3254 3.1256 5.1708 4.4858 7.7977 1.473 2.95 2.9012 5.9227 4.3831 8.8682 0.16924 0.33638 1.7312 3.4479 2.1285 3.9461 0.25943 0.32536 0.65916 0.5081 0.98873 0.76215 4.182-0.52489 5.9911-3.796 7.9086-6.9079 3.4541-5.6054-0.8092 1.1818 2.6208-4.2527 0.99898-1.4572 1.949-2.9776 3.1565-4.2789 0.2357-0.254 1.0665-0.86937 0.75817-0.71119-3.2636 1.6745-3.4762 1.385-1.8169 1.9102 0.3563 0.36228 0.74862 0.69235 1.0689 1.0868 0.99732 1.2284 1.9102 2.8028 2.6615 4.169 1.4084 2.5612 2.5916 5.2276 3.7976 7.887 0.63083 1.1485 0.96207 2.4348 1.5487 3.603 0.145 0.28874 0.2637 0.62822 0.52952 0.8119 0.17902 0.12371 0.47454 0.12989 0.65279 5e-3 4.2053-2.9448 3.4514-1.8938 4.5804-5.2016 1.5404-4.4809 3.4277-8.8383 5.6917-13 0.24722-0.31835 1.0823-1.1706 0.74167-0.95506-0.85625 0.54195-2.033 0.98758-2.3258 1.9577-0.17309 0.57342 0.97562 0.70582 1.3918 1.1366 0.76311 0.79 1.4597 1.6439 2.1326 2.5119 1.7165 2.214 3.0767 4.3879 4.6163 6.7301 2.0279 2.9778 3.6648 6.1978 5.5629 9.2536 0.55801 0.89839 1.4431 2.4456 2.1486 2.1314 1.6322-0.727 2.9876-1.9606 4.4814-2.9409 3.3742-6.0936 5.9734-12.566 8.894-18.879 0.29434-0.60154 0.56033-1.2178 0.88302-1.8046 0.22201-0.40373 1.176-1.3335 0.74837-1.1621-0.95206 0.38154-1.9539 0.95612-2.4602 1.8481-0.20806 0.36658 0.66272 0.53453 0.91702 0.87068 1.025 1.355 1.6876 2.9389 2.4233 4.4513 1.1048 2.6673 2.1689 5.3504 3.1645 8.0604 0.14457 0.39349 0.89468 2.7354 1.3583 3.2784 0.17625 0.20639 0.49209 0.22912 0.73813 0.34367 1.4112-0.98194 3.0028-1.7455 4.2336-2.9458 0.61753-0.60227 0.7803-1.5387 1.1592-2.3136 0.54072-1.106 1.0524-2.2261 1.5995-3.3289 1.9659-3.9629 4.1116-7.8198 6.27-11.68 0.49219-0.83997 2.6876-4.6728 3.434-5.655 0.41592-0.54728 2.0884-1.6949 1.4352-1.4808-4.1624 1.3642-0.95012 1.821 9e-3 2.6625 0.88077 0.77264 1.5666 1.7426 2.3498 2.6139 0.80382 1.2614 1.6762 2.4818 2.4115 3.7843 1.6526 2.9276 2.9754 6.0513 4.2606 9.1499 1.4561 3.5106 2.7866 7.0745 4.1873 10.607-0.12206-1.0962 0.64962 2.4698 1.3621 2.0584 1.4298-0.82582 2.8377-1.7744 3.9368-3.0066 0.51345-0.57566 0.45813-1.4734 0.7095-2.2026 1.0499-3.046 1.241-3.3987 2.4928-6.5048 1.36-2.8405 2.3505-5.9352 4.1216-8.571 0.3468-0.51609 1.8232-1.5156 1.2086-1.4208-4.5872 0.70724-1.446 1.8211-0.68161 2.2137 0.53291 0.68905 1.1274 1.3346 1.5987 2.0671 1.0359 1.6099 2.6172 4.8791 3.3982 6.5443 1.4598 3.1126 2.7991 6.2838 4.2123 9.4178 0.35379 0.49006 0.50291 1.239 1.0614 1.4702 0.48129 0.19928 1.0896-0.0972 1.5091-0.40592 1.7772-1.308 3.5016-2.7246 4.9757-4.3668 0.90026-1.0029 1.3914-2.3087 2.0646-3.4763 1.1363-1.9708 2.7958-5.0187 3.9066-7.0433-1.8797-1.9469 3.8069-3.0532 2.9683-4.7081-0.32277-0.63699-1.6079 0.56706-1.7241 1.2716-0.0812 0.49255 1.0227 0.0981 1.4579 0.34263 1.3808 0.77604 2.3871 2.3515 3.3112 3.531 1.837 2.5951 3.3208 5.4154 4.8109 8.217 0.39602 0.74455 0.77664 1.4972 1.1665 2.245 0.29533 0.56649 0.51398 1.1807 0.88907 1.6979 0.19241 0.26529 0.5188 0.40057 0.7782 0.60086 1.4007-0.81693 2.9773-1.388 4.202-2.4508 0.55654-0.48294 0.62166-1.3362 0.93211-2.0045 0.41372-0.89056 0.82768-1.781 1.2404-2.672 1.2278-2.6507 2.4473-5.3043 3.6999-7.9433 0.27897-0.55029 1.3706-2.7824 1.824-3.4167 0.22435-0.31391 1.1442-1.0164 0.80576-0.83103-4.1526 2.2739-2.8699 1.1245-1.5594 2.2908 0.43603 0.38803 0.77311 0.87467 1.1597 1.312 0.46268 0.65127 0.94298 1.2904 1.388 1.9538 1.243 1.853 1.8684 2.9783 3.035 4.8871 1.3826 2.2622 2.8035 4.4979 4.2466 6.7217 0.39779 0.1979 0.77943 0.75511 1.1934 0.59369 1.6603-0.64749 3.1995-1.6506 4.5369-2.8284 0.70125-0.61756 0.97732-1.5941 1.4196-2.4172 0.67-1.2469 1.283-2.5237 1.9156-3.79 1.462-2.9266 2.9039-5.8631 4.3611-8.792 2.4843-4.851 1.2782-2.555 3.6053-6.8952l-3.2107 1.4456c-2.1878 4.294-1.044 2.0216-3.4237 6.821-2.1035 4.2454-4.1106 8.5943-6.5476 12.664-0.49406 0.82501-1.9062 1.4688-1.6202 2.387 0.22379 0.71845 1.6332-0.16773 2.1375-0.72628 0.27503-0.30465-0.79157-0.21741-1.1874-0.32612-3.0599-4.4312-5.7054-9.1148-8.6337-13.63-0.38137-0.48091-0.71618-1.0027-1.1441-1.4427-0.31193-0.32071-0.62514-0.92875-1.0599-0.82336-4.3682 1.0588-4.9391 2.9283-6.5481 6.3491-1.2134 2.6422-2.3969 5.3008-3.6588 7.9204-0.43654 0.90619-0.86698 1.8161-1.3411 2.7032-0.35326 0.66091-1.7919 1.569-1.1396 1.938 0.82546 0.46688 1.7497-0.73204 2.6246-1.0981-0.26443-0.12053-0.60234-0.14251-0.79327-0.36158-0.41844-0.48009-0.64757-1.0969-0.96106-1.6512-0.41551-0.73475-0.81488-1.4785-1.2258-2.2158-1.5536-2.7875-3.0441-5.6162-4.8053-8.2812-0.89161-1.207-1.9801-2.9457-3.3047-3.8139-0.47558-0.31171-1.0705-0.7303-1.6122-0.55746-1.6722 0.5335-3.2116 1.4835-4.611 2.5429-0.58393 0.44208-2.6329 4.4193-2.7636 4.6603-1.2374 2.295-2.5465 4.7785-3.8804 7.0124-0.70704 1.1842-1.8981 2.157-2.2036 3.5019-0.1038 0.45692 1.2668 0.12912 1.2723 0.59765 0.01 0.81679-2.9575 1.6179-2.4018-0.48632-1.5225-3.0845-2.9045-6.2223-4.3429-9.3463-0.70088-1.5222-2.3932-5.1642-3.2825-6.6852-0.46345-0.79265-1.0345-1.5173-1.5517-2.2759-0.48422-0.31617-0.88801-1.0734-1.4526-0.94851-1.6334 0.36139-3.0872 1.3351-4.4804 2.2612-0.50132 0.33326-0.7737 0.9279-1.0887 1.4409-1.6436 2.6767-2.6144 5.7185-3.9577 8.539-1.7987 4.3474-1.0436 2.4588-2.661 6.601-0.28922 0.74069-1.4975 1.7403-0.8655 2.2229 0.76737 0.58598 1.8933-0.41125 2.7987-0.74672 0.18376-0.0681-0.38882-0.0495-0.58323-0.0742-0.29692-0.5224-0.59383-1.0448-0.89074-1.5672-1.5581-3.458-2.9791-6.9657-4.4534-10.46-1.3312-3.1553-2.5936-6.21-4.2156-9.2322-0.71519-1.3326-1.549-2.598-2.3236-3.8969-0.0476-0.0593-3.0171-4.2835-4.1527-4.1496-4.1694 0.49154-5.6225 2.9854-7.4075 6.0561-0.60653 1.0434-1.1884 2.101-1.7825 3.1515-1.2398 2.2487-3.052 5.5197-4.2502 7.7603-1.302 2.4346-2.5121 4.9179-3.8267 7.3457-0.42551 0.78585-1.8686 1.5983-1.3424 2.3207 0.50907 0.69895 1.654-0.50494 2.481-0.75741-0.21681-0.0108-0.48797 0.11153-0.65043-0.0325-0.55094-0.48829-1.3378-2.7689-1.4871-3.1473-1.0624-2.6922-2.1289-5.3826-3.2005-8.0712-0.6276-1.3795-1.4434-3.3498-2.3138-4.652-0.29541-0.44198-0.51944-1.2862-1.0448-1.205-4.0363 0.624-4.3281 2.112-5.5922 4.9407-2.7704 6.3842-5.2889 12.944-9.0814 18.813 0.73256-0.22 1.5858-0.20106 2.1977-0.66 0.27618-0.20717-0.73906-0.0167-1.0096-0.2312-0.51492-0.40836-0.85432-1.0019-1.2274-1.5429-0.56601-0.82074-1.0598-1.689-1.5856-2.5361-4.3569-7.0185 0.61417 0.93382-4.1316-6.6416-1.696-2.633-2.7199-4.2939-4.524-6.8236-0.64428-0.90343-1.2829-1.814-1.9964-2.6638-0.43089-0.5132-0.7596-1.4609-1.4281-1.4149-3.5312 0.24311-3.7485 0.94902-4.9964 2.7913-2.1549 4.2091-3.9582 8.585-5.6069 13.015-0.26946 0.67268-1.4152 1.622-0.80838 2.018 0.77634 0.50672 1.7453-0.66417 2.661-0.80882 0.1986-0.0314-0.20435 0.49878-0.39981 0.45165-0.29164-0.0703-0.4279-0.42956-0.58027-0.68799-0.66263-1.1239-0.98936-2.4264-1.6693-3.5402-1.2576-2.6428-2.4593-5.3157-3.8205-7.9078-0.73631-1.4022-1.6206-3.0247-2.566-4.3213-0.3272-0.44874-0.71943-0.84622-1.0792-1.2693-0.31649-0.17163-0.60896-0.63186-0.94947-0.51491-4.3043 1.4784-5.4535 3.7574-7.7182 7.2131-1.3077 2.0938-2.5367 4.256-3.9562 6.2774-0.40554 0.5775-1.7978 1.2085-1.279 1.6869 0.57854 0.53359 1.4518-0.62169 2.2116-0.82686 0.33588-0.0907-0.61789 0.31997-0.92684 0.47996-0.33061-0.18856-0.73461-0.28513-0.99182-0.56567-0.47789-0.52121-2.023-3.451-2.2364-3.8535-1.5434-2.9123-3.0028-5.869-4.4579-8.8261-0.57394-1.1551-2.3587-4.7895-3.0441-6.0146-0.47417-0.84762-1.4356-2.5181-2.3067-3.2158-0.28284-0.22652-0.64966-0.56245-0.9922-0.44422-1.4884 0.51375-2.7778 1.4833-4.1668 2.225-0.3046 0.29061-0.63696 0.55466-0.9138 0.87183-0.65677 0.75246-1.8441 2.5218-2.3278 3.2583-1.8445 2.8085-3.5722 5.6943-5.2071 8.6293-2.0862 3.6665-4.1216 7.3823-6.387 10.943-0.56817 0.89304-1.9672 1.5836-1.785 2.6262 0.10147 0.58043 3.3908-0.52823 1.6736-0.56919-0.86545-1.265-1.463-2.6453-2.094-4.0418-1.2834-2.8398-2.4847-5.7158-3.7652-8.5569-0.9961-2.3043-1.952-4.6263-2.9777-6.9176-0.62249-1.3905-1.753-3.9353-2.737-5.2478-0.34099-0.45485-0.67342-1.2706-1.2341-1.177-1.5416 0.2572-2.8001 1.3891-4.2001 2.0837-0.28562 0.32151-0.59783 0.62124-0.85686 0.96453-0.5859 0.77649-1.8966 2.9158-2.3185 3.6202-1.8629 3.1104-3.595 6.2968-5.3381 9.475-0.71859 1.2873-3.0778 5.5401-3.8936 6.9035-0.44592 0.74528-1.7938 1.4185-1.4042 2.1947 0.342 0.68134 1.4647-0.4278 2.2096-0.59034 0.50292-0.10975-3.0675 1.2761-1.3815-0.68999-2.3817-4.6996-4.5181-9.5116-6.6245-14.34-0.74685-1.6616-1.294-2.9848-2.1704-4.5608-0.4027-0.72422-1.1877-2.0462-1.8876-2.6296-0.24978-0.20821-0.56827-0.54276-0.87428-0.43278-1.4392 0.51724-2.686 1.4633-4.029 2.195-2.8548 3.1104-4.8208 6.9318-6.9874 10.52-1.6566 2.8622-1.5674 2.7266-3.2252 5.5196-0.44754 0.75399-0.88671 1.5132-1.3493 2.258-0.29894 0.48135-1.4956 1.3389-0.93478 1.4198 0.86544 0.12479 3.9882-1.3501 2.3565-1.1523-1.6278-3.5577-2.6738-7.358-3.8631-11.075-0.25972-0.88024-0.51405-1.7621-0.77916-2.6407-0.39264-1.3013-0.81623-2.8924-1.4765-4.119-0.11173-0.20756-0.87755-1.611-1.5653-1.3291-1.41 0.57796-2.6657 1.4774-3.9985 2.2162-0.23071 0.25056-0.49108 0.47674-0.69211 0.75167-0.42445 0.5805-1.2492 2.1478-1.5392 2.7059-1.0167 1.9563-1.938 3.9592-2.8554 5.9634-1.4296 2.9726-2.8097 6.0402-4.7289 8.7398-0.3817 0.5369-1.8347 1.264-1.2371 1.5412 0.78691 0.36506 1.6016-0.66707 2.4023-1.0006-0.20124 0.0208-0.4117 0.12605-0.60371 0.0623-0.43004-0.14271-0.82244-0.90468-0.99389-1.2078-0.72974-1.2903-1.2705-2.6744-1.7525-4.073-1.3124-4.0756-2.3564-8.2256-3.5301-12.342-0.0318-0.0935-0.77706-2.4038-1.1348-2.2746-2.141 0.77294-3.3152 1.1594-4.339 2.7043-0.98845 1.7963-1.6575 3.7478-2.458 5.6307-0.34622 0.93009-0.74321 1.9557-1.0341 2.9044-0.63462 2.0694-0.98497 4.2052-1.4352 6.3181-0.40704 1.823-0.75902 3.7369-1.5814 5.4317-0.15585 0.32121-0.89942 0.99365-0.55036 0.9188 1.0356-0.22209 1.8979-0.94084 2.8468-1.4113-0.11957 0.0961-0.207 0.26554-0.35872 0.28842-0.14578 0.022-0.28162-0.0955-0.40711-0.17292-0.92362-0.56968-1.4136-1.637-1.8854-2.5592-1.2568-2.696-2.4168-5.4312-3.1955-8.3101-0.94768-3.0678-1.9632-6.1089-3.0329-9.1363-0.58336-1.6095-1.1598-3.2344-1.8632-4.7969-0.15551-0.34546-0.87558-1.8115-1.1777-2.1906-0.11074-0.13895-0.29104-0.20392-0.43656-0.30587-0.37676-0.0821-0.46496-0.14716-0.85875-0.0389-1.88 0.51697-3.7903 3.0623-5.4709 3.0218-1.0845 0.8226-1.8993 1.9342-2.8758 2.8763-1.1252 1.2435-2.1312 2.5806-3.1001 3.9487-0.94323 1.3543-1.7271 2.8108-2.6916 4.1513-1.1452 1.5381-2.2673 3.0924-3.3472 4.6774-1.0801 1.6015-2.1754 3.1934-3.1561 4.8591l3.6151-1.5997z" opacity="0" stroke-width="0"/>
  <path d="m284.65 151.9c-1.8325 5.1849-3.7779 10.329-5.508 15.55-0.95832 2.8918-2.5276 7.4437-2.8178 10.608-0.11657 1.2727 0.14673 2.5518 0.22021 3.8277 0.45642 0.88248 0.76249 1.8607 1.3692 2.6474 1.8903 2.4511 6.5966 3.0146 7.7799 5.642 0.4766 1.0582 0.43606 2.2798 0.65411 3.4198-0.26461 6.9662-1.4334 13.86-2.5545 20.727-0.64625 3.9585-1.5463 8.3916-1.8904 12.429-0.11946 1.4033-0.0739 2.8159-0.11095 4.2238 0.24735 0.96407 0.26965 2.0161 0.74203 2.8922 1.6956 3.1446 5.7933 2.632 8.6765 3.3394 0.62597 0.1536 1.2087 0.44794 1.8131 0.67188 0.50442 0.56611 1.1171 1.0518 1.5133 1.6983 2.1073 3.4389 2.9183 8.1001 4.2002 11.874 1.7824 5.2481 1.7043 4.7179 4.0498 9.6128 2.4809 3.3898 2.4552 4.1322 6.0756 6.2074 1.0734 0.61533 2.2887 0.94099 3.4331 1.4115l6.929-4.655c-1.1223-0.4023-2.3073-0.66027-3.3668-1.2069-3.587-1.8508-3.5091-2.5348-5.9798-5.7821-2.3748-4.8651-2.2659-4.2208-3.9815-9.5024-1.2785-3.9358-1.9985-8.7173-4.0674-12.345-0.44277-0.77636-1.1235-1.3902-1.6852-2.0854-0.65112-0.27521-1.2708-0.64166-1.9534-0.82558-2.4554-0.66164-6.6312 0.15603-8.2282-2.4566-0.47246-0.77287-0.52684-1.7334-0.79025-2.6001-9e-3 -1.3521-0.10561-2.7063-0.0281-4.0562 0.23364-4.0598 1.0181-8.2866 1.6494-12.276 1.1156-7.0497 2.4262-14.089 2.9085-21.221-0.2482-1.3025-0.22191-2.689-0.7446-3.9076-1.5978-3.7252-8.2434-3.2576-9.0078-7.7142-0.0929-1.1841-0.3725-2.3683-0.2786-3.5523 0.24499-3.0888 1.7493-7.6177 2.6841-10.421 1.7898-5.3674 3.807-10.674 6.2202-15.794l-7.9251 3.6181z" opacity="0" stroke-width="0"/>
 </g>
</svg>
